<?xml version="1.0" encoding="UTF-8" standalone="no"?>
<!DOCTYPE svg PUBLIC "-//W3C//DTD SVG 1.1//EN"
 "http://www.w3.org/Graphics/SVG/1.1/DTD/svg11.dtd">
<!-- Generated by graphviz version 2.44.1 (20200629.0846)
 -->
<!-- Title: dependencies Pages: 1 -->
<svg width="504pt" height="211pt"
 viewBox="0.00 0.00 504.00 211.00" xmlns="http://www.w3.org/2000/svg" xmlns:xlink="http://www.w3.org/1999/xlink">
<g id="graph0" class="graph" transform="scale(1 1) rotate(0) translate(4 207)">
<title>dependencies</title>
<polygon fill="white" stroke="transparent" points="-4,4 -4,-207 500,-207 500,4 -4,4"/>
<text text-anchor="start" x="227.01" y="-42.4" font-family="sans-serif" font-weight="bold" font-size="14.00">Legend</text>
<polygon fill="#ffffb3" stroke="transparent" points="14,-10 14,-30 34,-30 34,-10 14,-10"/>
<text text-anchor="start" x="37.63" y="-15.4" font-family="sans-serif" font-size="14.00"> &#160;Declarations</text>
<polygon fill="#8dd3c7" stroke="transparent" points="127,-10 127,-30 147,-30 147,-10 127,-10"/>
<text text-anchor="start" x="150.73" y="-15.4" font-family="sans-serif" font-size="14.00"> &#160;Module</text>
<polygon fill="#80b1d3" stroke="transparent" points="213,-10 213,-30 233,-30 233,-10 213,-10"/>
<text text-anchor="start" x="236.78" y="-15.4" font-family="sans-serif" font-size="14.00"> &#160;Bootstrap</text>
<polygon fill="#fdb462" stroke="transparent" points="310,-10 310,-30 330,-30 330,-10 310,-10"/>
<text text-anchor="start" x="333.67" y="-15.4" font-family="sans-serif" font-size="14.00"> &#160;Providers</text>
<polygon fill="#fb8072" stroke="transparent" points="406,-10 406,-30 426,-30 426,-10 406,-10"/>
<text text-anchor="start" x="429.73" y="-15.4" font-family="sans-serif" font-size="14.00"> &#160;Exports</text>
<g id="clust1" class="cluster">
<title>cluster_EmailSchedulingModule</title>
<polygon fill="none" stroke="black" stroke-dasharray="1,5" points="67,-70 67,-195 429,-195 429,-70 67,-70"/>
</g>
<g id="clust3" class="cluster">
<title>cluster_EmailSchedulingModule_imports</title>
<polygon fill="none" stroke="black" points="313,-78 313,-130 421,-130 421,-78 313,-78"/>
</g>
<g id="clust6" class="cluster">
<title>cluster_EmailSchedulingModule_providers</title>
<polygon fill="none" stroke="black" points="75,-78 75,-130 305,-130 305,-78 75,-78"/>
</g>
<!-- EmailModule -->
<g id="node1" class="node">
<title>EmailModule</title>
<polygon fill="#8dd3c7" stroke="black" points="413.49,-122 410.49,-126 389.49,-126 386.49,-122 320.51,-122 320.51,-86 413.49,-86 413.49,-122"/>
<text text-anchor="middle" x="367" y="-99.8" font-family="Times,serif" font-size="14.00">EmailModule</text>
</g>
<!-- EmailSchedulingModule -->
<g id="node2" class="node">
<title>EmailSchedulingModule</title>
<polygon fill="#8dd3c7" stroke="black" points="343.98,-187 340.98,-191 319.98,-191 316.98,-187 188.02,-187 188.02,-151 343.98,-151 343.98,-187"/>
<text text-anchor="middle" x="266" y="-164.8" font-family="Times,serif" font-size="14.00">EmailSchedulingModule</text>
</g>
<!-- EmailModule&#45;&gt;EmailSchedulingModule -->
<g id="edge1" class="edge">
<title>EmailModule&#45;&gt;EmailSchedulingModule</title>
<path fill="none" stroke="black" d="M332.25,-122.11C332.25,-122.11 332.25,-140.99 332.25,-140.99"/>
<polygon fill="black" stroke="black" points="328.75,-140.99 332.25,-150.99 335.75,-140.99 328.75,-140.99"/>
</g>
<!-- EmailSchedulingService -->
<g id="node3" class="node">
<title>EmailSchedulingService</title>
<ellipse fill="#fdb462" stroke="black" cx="190" cy="-104" rx="106.52" ry="18"/>
<text text-anchor="middle" x="190" y="-99.8" font-family="Times,serif" font-size="14.00">EmailSchedulingService</text>
</g>
<!-- EmailSchedulingService&#45;&gt;EmailSchedulingModule -->
<g id="edge2" class="edge">
<title>EmailSchedulingService&#45;&gt;EmailSchedulingModule</title>
<path fill="none" stroke="black" d="M242.26,-119.73C242.26,-119.73 242.26,-140.65 242.26,-140.65"/>
<polygon fill="black" stroke="black" points="238.76,-140.65 242.26,-150.65 245.76,-140.65 238.76,-140.65"/>
</g>
</g>
</svg>
