<?xml version="1.0" encoding="UTF-8" standalone="no"?>
<!DOCTYPE svg PUBLIC "-//W3C//DTD SVG 1.1//EN"
 "http://www.w3.org/Graphics/SVG/1.1/DTD/svg11.dtd">
<!-- Generated by graphviz version 2.44.1 (20200629.0846)
 -->
<!-- Title: dependencies Pages: 1 -->
<svg width="766pt" height="211pt"
 viewBox="0.00 0.00 766.00 211.00" xmlns="http://www.w3.org/2000/svg" xmlns:xlink="http://www.w3.org/1999/xlink">
<g id="graph0" class="graph" transform="scale(1 1) rotate(0) translate(4 207)">
<title>dependencies</title>
<polygon fill="white" stroke="transparent" points="-4,4 -4,-207 762,-207 762,4 -4,4"/>
<text text-anchor="start" x="358.01" y="-42.4" font-family="sans-serif" font-weight="bold" font-size="14.00">Legend</text>
<polygon fill="#ffffb3" stroke="transparent" points="145,-10 145,-30 165,-30 165,-10 145,-10"/>
<text text-anchor="start" x="168.63" y="-15.4" font-family="sans-serif" font-size="14.00"> &#160;Declarations</text>
<polygon fill="#8dd3c7" stroke="transparent" points="258,-10 258,-30 278,-30 278,-10 258,-10"/>
<text text-anchor="start" x="281.73" y="-15.4" font-family="sans-serif" font-size="14.00"> &#160;Module</text>
<polygon fill="#80b1d3" stroke="transparent" points="344,-10 344,-30 364,-30 364,-10 344,-10"/>
<text text-anchor="start" x="367.78" y="-15.4" font-family="sans-serif" font-size="14.00"> &#160;Bootstrap</text>
<polygon fill="#fdb462" stroke="transparent" points="441,-10 441,-30 461,-30 461,-10 441,-10"/>
<text text-anchor="start" x="464.67" y="-15.4" font-family="sans-serif" font-size="14.00"> &#160;Providers</text>
<polygon fill="#fb8072" stroke="transparent" points="537,-10 537,-30 557,-30 557,-10 537,-10"/>
<text text-anchor="start" x="560.73" y="-15.4" font-family="sans-serif" font-size="14.00"> &#160;Exports</text>
<g id="clust1" class="cluster">
<title>cluster_AppModule</title>
<polygon fill="none" stroke="black" stroke-dasharray="1,5" points="8,-70 8,-195 750,-195 750,-70 8,-70"/>
</g>
<g id="clust3" class="cluster">
<title>cluster_AppModule_imports</title>
<polygon fill="none" stroke="black" points="16,-78 16,-130 742,-130 742,-78 16,-78"/>
</g>
<!-- AuthModule -->
<g id="node1" class="node">
<title>AuthModule</title>
<polygon fill="#8dd3c7" stroke="black" points="733.55,-122 730.55,-126 709.55,-126 706.55,-122 646.45,-122 646.45,-86 733.55,-86 733.55,-122"/>
<text text-anchor="middle" x="690" y="-99.8" font-family="Times,serif" font-size="14.00">AuthModule</text>
</g>
<!-- AppModule -->
<g id="node7" class="node">
<title>AppModule</title>
<polygon fill="#8dd3c7" stroke="black" points="432.66,-187 429.66,-191 408.66,-191 405.66,-187 349.34,-187 349.34,-151 432.66,-151 432.66,-187"/>
<text text-anchor="middle" x="391" y="-164.8" font-family="Times,serif" font-size="14.00">AppModule</text>
</g>
<!-- AuthModule&#45;&gt;AppModule -->
<g id="edge1" class="edge">
<title>AuthModule&#45;&gt;AppModule</title>
<path fill="none" stroke="black" d="M690,-122.28C690,-143.32 690,-175 690,-175 690,-175 442.89,-175 442.89,-175"/>
<polygon fill="black" stroke="black" points="442.89,-171.5 432.89,-175 442.89,-178.5 442.89,-171.5"/>
</g>
<!-- CronModule -->
<g id="node2" class="node">
<title>CronModule</title>
<polygon fill="#8dd3c7" stroke="black" points="627.55,-122 624.55,-126 603.55,-126 600.55,-122 540.45,-122 540.45,-86 627.55,-86 627.55,-122"/>
<text text-anchor="middle" x="584" y="-99.8" font-family="Times,serif" font-size="14.00">CronModule</text>
</g>
<!-- CronModule&#45;&gt;AppModule -->
<g id="edge2" class="edge">
<title>CronModule&#45;&gt;AppModule</title>
<path fill="none" stroke="black" d="M584,-122.02C584,-139.37 584,-163 584,-163 584,-163 442.88,-163 442.88,-163"/>
<polygon fill="black" stroke="black" points="442.88,-159.5 432.88,-163 442.88,-166.5 442.88,-159.5"/>
</g>
<!-- DatabaseModule -->
<g id="node3" class="node">
<title>DatabaseModule</title>
<polygon fill="#8dd3c7" stroke="black" points="522.35,-122 519.35,-126 498.35,-126 495.35,-122 411.65,-122 411.65,-86 522.35,-86 522.35,-122"/>
<text text-anchor="middle" x="467" y="-99.8" font-family="Times,serif" font-size="14.00">DatabaseModule</text>
</g>
<!-- DatabaseModule&#45;&gt;AppModule -->
<g id="edge3" class="edge">
<title>DatabaseModule&#45;&gt;AppModule</title>
<path fill="none" stroke="black" d="M422.2,-122.11C422.2,-122.11 422.2,-140.99 422.2,-140.99"/>
<polygon fill="black" stroke="black" points="418.7,-140.99 422.2,-150.99 425.7,-140.99 418.7,-140.99"/>
</g>
<!-- EmailSchedulingModule -->
<g id="node4" class="node">
<title>EmailSchedulingModule</title>
<polygon fill="#8dd3c7" stroke="black" points="393.98,-122 390.98,-126 369.98,-126 366.98,-122 238.02,-122 238.02,-86 393.98,-86 393.98,-122"/>
<text text-anchor="middle" x="316" y="-99.8" font-family="Times,serif" font-size="14.00">EmailSchedulingModule</text>
</g>
<!-- EmailSchedulingModule&#45;&gt;AppModule -->
<g id="edge4" class="edge">
<title>EmailSchedulingModule&#45;&gt;AppModule</title>
<path fill="none" stroke="black" d="M371.58,-122.11C371.58,-122.11 371.58,-140.99 371.58,-140.99"/>
<polygon fill="black" stroke="black" points="368.08,-140.99 371.58,-150.99 375.08,-140.99 368.08,-140.99"/>
</g>
<!-- TagsModule -->
<g id="node5" class="node">
<title>TagsModule</title>
<polygon fill="#8dd3c7" stroke="black" points="220.26,-122 217.26,-126 196.26,-126 193.26,-122 133.74,-122 133.74,-86 220.26,-86 220.26,-122"/>
<text text-anchor="middle" x="177" y="-99.8" font-family="Times,serif" font-size="14.00">TagsModule</text>
</g>
<!-- TagsModule&#45;&gt;AppModule -->
<g id="edge5" class="edge">
<title>TagsModule&#45;&gt;AppModule</title>
<path fill="none" stroke="black" d="M177,-122.02C177,-139.37 177,-163 177,-163 177,-163 339.23,-163 339.23,-163"/>
<polygon fill="black" stroke="black" points="339.23,-166.5 349.23,-163 339.23,-159.5 339.23,-166.5"/>
</g>
<!-- UsersModule -->
<g id="node6" class="node">
<title>UsersModule</title>
<polygon fill="#8dd3c7" stroke="black" points="115.92,-122 112.92,-126 91.92,-126 88.92,-122 24.08,-122 24.08,-86 115.92,-86 115.92,-122"/>
<text text-anchor="middle" x="70" y="-99.8" font-family="Times,serif" font-size="14.00">UsersModule</text>
</g>
<!-- UsersModule&#45;&gt;AppModule -->
<g id="edge6" class="edge">
<title>UsersModule&#45;&gt;AppModule</title>
<path fill="none" stroke="black" d="M70,-122.28C70,-143.32 70,-175 70,-175 70,-175 339.03,-175 339.03,-175"/>
<polygon fill="black" stroke="black" points="339.03,-178.5 349.03,-175 339.03,-171.5 339.03,-178.5"/>
</g>
</g>
</svg>
