<?xml version="1.0" encoding="UTF-8" standalone="no"?>
<!DOCTYPE svg PUBLIC "-//W3C//DTD SVG 1.1//EN"
 "http://www.w3.org/Graphics/SVG/1.1/DTD/svg11.dtd">
<!-- Generated by graphviz version 2.44.1 (20200629.0846)
 -->
<!-- Title: dependencies Pages: 1 -->
<svg width="504pt" height="211pt"
 viewBox="0.00 0.00 504.00 211.00" xmlns="http://www.w3.org/2000/svg" xmlns:xlink="http://www.w3.org/1999/xlink">
<g id="graph0" class="graph" transform="scale(1 1) rotate(0) translate(4 207)">
<title>dependencies</title>
<polygon fill="white" stroke="transparent" points="-4,4 -4,-207 500,-207 500,4 -4,4"/>
<text text-anchor="start" x="227.01" y="-42.4" font-family="sans-serif" font-weight="bold" font-size="14.00">Legend</text>
<polygon fill="#ffffb3" stroke="transparent" points="14,-10 14,-30 34,-30 34,-10 14,-10"/>
<text text-anchor="start" x="37.63" y="-15.4" font-family="sans-serif" font-size="14.00"> &#160;Declarations</text>
<polygon fill="#8dd3c7" stroke="transparent" points="127,-10 127,-30 147,-30 147,-10 127,-10"/>
<text text-anchor="start" x="150.73" y="-15.4" font-family="sans-serif" font-size="14.00"> &#160;Module</text>
<polygon fill="#80b1d3" stroke="transparent" points="213,-10 213,-30 233,-30 233,-10 213,-10"/>
<text text-anchor="start" x="236.78" y="-15.4" font-family="sans-serif" font-size="14.00"> &#160;Bootstrap</text>
<polygon fill="#fdb462" stroke="transparent" points="310,-10 310,-30 330,-30 330,-10 310,-10"/>
<text text-anchor="start" x="333.67" y="-15.4" font-family="sans-serif" font-size="14.00"> &#160;Providers</text>
<polygon fill="#fb8072" stroke="transparent" points="406,-10 406,-30 426,-30 426,-10 406,-10"/>
<text text-anchor="start" x="429.73" y="-15.4" font-family="sans-serif" font-size="14.00"> &#160;Exports</text>
<g id="clust1" class="cluster">
<title>cluster_AppModule</title>
<polygon fill="none" stroke="black" stroke-dasharray="1,5" points="16.5,-70 16.5,-195 479.5,-195 479.5,-70 16.5,-70"/>
</g>
<g id="clust3" class="cluster">
<title>cluster_AppModule_imports</title>
<polygon fill="none" stroke="black" points="24.5,-78 24.5,-130 471.5,-130 471.5,-78 24.5,-78"/>
</g>
<!-- CronModule -->
<g id="node1" class="node">
<title>CronModule</title>
<polygon fill="#8dd3c7" stroke="black" points="463.05,-122 460.05,-126 439.05,-126 436.05,-122 375.95,-122 375.95,-86 463.05,-86 463.05,-122"/>
<text text-anchor="middle" x="419.5" y="-99.8" font-family="Times,serif" font-size="14.00">CronModule</text>
</g>
<!-- AppModule -->
<g id="node5" class="node">
<title>AppModule</title>
<polygon fill="#8dd3c7" stroke="black" points="285.16,-187 282.16,-191 261.16,-191 258.16,-187 201.84,-187 201.84,-151 285.16,-151 285.16,-187"/>
<text text-anchor="middle" x="243.5" y="-164.8" font-family="Times,serif" font-size="14.00">AppModule</text>
</g>
<!-- CronModule&#45;&gt;AppModule -->
<g id="edge1" class="edge">
<title>CronModule&#45;&gt;AppModule</title>
<path fill="none" stroke="black" d="M419.5,-122.11C419.5,-141.34 419.5,-169 419.5,-169 419.5,-169 295.21,-169 295.21,-169"/>
<polygon fill="black" stroke="black" points="295.21,-165.5 285.21,-169 295.21,-172.5 295.21,-165.5"/>
</g>
<!-- DatabaseModule -->
<g id="node2" class="node">
<title>DatabaseModule</title>
<polygon fill="#8dd3c7" stroke="black" points="357.85,-122 354.85,-126 333.85,-126 330.85,-122 247.15,-122 247.15,-86 357.85,-86 357.85,-122"/>
<text text-anchor="middle" x="302.5" y="-99.8" font-family="Times,serif" font-size="14.00">DatabaseModule</text>
</g>
<!-- DatabaseModule&#45;&gt;AppModule -->
<g id="edge2" class="edge">
<title>DatabaseModule&#45;&gt;AppModule</title>
<path fill="none" stroke="black" d="M266.2,-122.11C266.2,-122.11 266.2,-140.99 266.2,-140.99"/>
<polygon fill="black" stroke="black" points="262.7,-140.99 266.2,-150.99 269.7,-140.99 262.7,-140.99"/>
</g>
<!-- TagsModule -->
<g id="node3" class="node">
<title>TagsModule</title>
<polygon fill="#8dd3c7" stroke="black" points="228.76,-122 225.76,-126 204.76,-126 201.76,-122 142.24,-122 142.24,-86 228.76,-86 228.76,-122"/>
<text text-anchor="middle" x="185.5" y="-99.8" font-family="Times,serif" font-size="14.00">TagsModule</text>
</g>
<!-- TagsModule&#45;&gt;AppModule -->
<g id="edge3" class="edge">
<title>TagsModule&#45;&gt;AppModule</title>
<path fill="none" stroke="black" d="M215.28,-122.11C215.28,-122.11 215.28,-140.99 215.28,-140.99"/>
<polygon fill="black" stroke="black" points="211.78,-140.99 215.28,-150.99 218.78,-140.99 211.78,-140.99"/>
</g>
<!-- UsersModule -->
<g id="node4" class="node">
<title>UsersModule</title>
<polygon fill="#8dd3c7" stroke="black" points="124.42,-122 121.42,-126 100.42,-126 97.42,-122 32.58,-122 32.58,-86 124.42,-86 124.42,-122"/>
<text text-anchor="middle" x="78.5" y="-99.8" font-family="Times,serif" font-size="14.00">UsersModule</text>
</g>
<!-- UsersModule&#45;&gt;AppModule -->
<g id="edge4" class="edge">
<title>UsersModule&#45;&gt;AppModule</title>
<path fill="none" stroke="black" d="M78.5,-122.11C78.5,-141.34 78.5,-169 78.5,-169 78.5,-169 191.44,-169 191.44,-169"/>
<polygon fill="black" stroke="black" points="191.44,-172.5 201.44,-169 191.44,-165.5 191.44,-172.5"/>
</g>
</g>
</svg>
