<?xml version="1.0" encoding="UTF-8" standalone="no"?>
<!DOCTYPE svg PUBLIC "-//W3C//DTD SVG 1.1//EN"
 "http://www.w3.org/Graphics/SVG/1.1/DTD/svg11.dtd">
<!-- Generated by graphviz version 2.44.1 (20200629.0846)
 -->
<!-- Title: dependencies Pages: 1 -->
<svg width="515pt" height="211pt"
 viewBox="0.00 0.00 515.00 211.00" xmlns="http://www.w3.org/2000/svg" xmlns:xlink="http://www.w3.org/1999/xlink">
<g id="graph0" class="graph" transform="scale(1 1) rotate(0) translate(4 207)">
<title>dependencies</title>
<polygon fill="white" stroke="transparent" points="-4,4 -4,-207 511,-207 511,4 -4,4"/>
<text text-anchor="start" x="232.51" y="-42.4" font-family="sans-serif" font-weight="bold" font-size="14.00">Legend</text>
<polygon fill="#ffffb3" stroke="transparent" points="19.5,-10 19.5,-30 39.5,-30 39.5,-10 19.5,-10"/>
<text text-anchor="start" x="43.13" y="-15.4" font-family="sans-serif" font-size="14.00"> &#160;Declarations</text>
<polygon fill="#8dd3c7" stroke="transparent" points="132.5,-10 132.5,-30 152.5,-30 152.5,-10 132.5,-10"/>
<text text-anchor="start" x="156.23" y="-15.4" font-family="sans-serif" font-size="14.00"> &#160;Module</text>
<polygon fill="#80b1d3" stroke="transparent" points="218.5,-10 218.5,-30 238.5,-30 238.5,-10 218.5,-10"/>
<text text-anchor="start" x="242.28" y="-15.4" font-family="sans-serif" font-size="14.00"> &#160;Bootstrap</text>
<polygon fill="#fdb462" stroke="transparent" points="315.5,-10 315.5,-30 335.5,-30 335.5,-10 315.5,-10"/>
<text text-anchor="start" x="339.17" y="-15.4" font-family="sans-serif" font-size="14.00"> &#160;Providers</text>
<polygon fill="#fb8072" stroke="transparent" points="411.5,-10 411.5,-30 431.5,-30 431.5,-10 411.5,-10"/>
<text text-anchor="start" x="435.23" y="-15.4" font-family="sans-serif" font-size="14.00"> &#160;Exports</text>
<g id="clust1" class="cluster">
<title>cluster_AppModule</title>
<polygon fill="none" stroke="black" stroke-dasharray="1,5" points="8,-70 8,-195 499,-195 499,-70 8,-70"/>
</g>
<g id="clust6" class="cluster">
<title>cluster_AppModule_providers</title>
<polygon fill="none" stroke="black" points="361,-78 361,-130 491,-130 491,-78 361,-78"/>
</g>
<g id="clust3" class="cluster">
<title>cluster_AppModule_imports</title>
<polygon fill="none" stroke="black" points="16,-78 16,-130 353,-130 353,-78 16,-78"/>
</g>
<!-- CronModule -->
<g id="node1" class="node">
<title>CronModule</title>
<polygon fill="#8dd3c7" stroke="black" points="344.55,-122 341.55,-126 320.55,-126 317.55,-122 257.45,-122 257.45,-86 344.55,-86 344.55,-122"/>
<text text-anchor="middle" x="301" y="-99.8" font-family="Times,serif" font-size="14.00">CronModule</text>
</g>
<!-- AppModule -->
<g id="node4" class="node">
<title>AppModule</title>
<polygon fill="#8dd3c7" stroke="black" points="283.66,-187 280.66,-191 259.66,-191 256.66,-187 200.34,-187 200.34,-151 283.66,-151 283.66,-187"/>
<text text-anchor="middle" x="242" y="-164.8" font-family="Times,serif" font-size="14.00">AppModule</text>
</g>
<!-- CronModule&#45;&gt;AppModule -->
<g id="edge1" class="edge">
<title>CronModule&#45;&gt;AppModule</title>
<path fill="none" stroke="black" d="M270.53,-122.11C270.53,-122.11 270.53,-140.99 270.53,-140.99"/>
<polygon fill="black" stroke="black" points="267.03,-140.99 270.53,-150.99 274.03,-140.99 267.03,-140.99"/>
</g>
<!-- DatabaseModule -->
<g id="node2" class="node">
<title>DatabaseModule</title>
<polygon fill="#8dd3c7" stroke="black" points="239.35,-122 236.35,-126 215.35,-126 212.35,-122 128.65,-122 128.65,-86 239.35,-86 239.35,-122"/>
<text text-anchor="middle" x="184" y="-99.8" font-family="Times,serif" font-size="14.00">DatabaseModule</text>
</g>
<!-- DatabaseModule&#45;&gt;AppModule -->
<g id="edge2" class="edge">
<title>DatabaseModule&#45;&gt;AppModule</title>
<path fill="none" stroke="black" d="M219.8,-122.11C219.8,-122.11 219.8,-140.99 219.8,-140.99"/>
<polygon fill="black" stroke="black" points="216.3,-140.99 219.8,-150.99 223.3,-140.99 216.3,-140.99"/>
</g>
<!-- TagsModule -->
<g id="node3" class="node">
<title>TagsModule</title>
<polygon fill="#8dd3c7" stroke="black" points="110.26,-122 107.26,-126 86.26,-126 83.26,-122 23.74,-122 23.74,-86 110.26,-86 110.26,-122"/>
<text text-anchor="middle" x="67" y="-99.8" font-family="Times,serif" font-size="14.00">TagsModule</text>
</g>
<!-- TagsModule&#45;&gt;AppModule -->
<g id="edge3" class="edge">
<title>TagsModule&#45;&gt;AppModule</title>
<path fill="none" stroke="black" d="M67,-122.11C67,-141.34 67,-169 67,-169 67,-169 190.08,-169 190.08,-169"/>
<polygon fill="black" stroke="black" points="190.08,-172.5 200.08,-169 190.08,-165.5 190.08,-172.5"/>
</g>
<!-- AppService -->
<g id="node5" class="node">
<title>AppService</title>
<ellipse fill="#fdb462" stroke="black" cx="426" cy="-104" rx="56.74" ry="18"/>
<text text-anchor="middle" x="426" y="-99.8" font-family="Times,serif" font-size="14.00">AppService</text>
</g>
<!-- AppService&#45;&gt;AppModule -->
<g id="edge4" class="edge">
<title>AppService&#45;&gt;AppModule</title>
<path fill="none" stroke="black" d="M426,-122.11C426,-141.34 426,-169 426,-169 426,-169 293.75,-169 293.75,-169"/>
<polygon fill="black" stroke="black" points="293.75,-165.5 283.75,-169 293.75,-172.5 293.75,-165.5"/>
</g>
</g>
</svg>
