<?xml version="1.0" encoding="UTF-8" standalone="no"?>
<!DOCTYPE svg PUBLIC "-//W3C//DTD SVG 1.1//EN"
 "http://www.w3.org/Graphics/SVG/1.1/DTD/svg11.dtd">
<!-- Generated by graphviz version 2.44.1 (20200629.0846)
 -->
<!-- Title: dependencies Pages: 1 -->
<svg width="504pt" height="211pt"
 viewBox="0.00 0.00 504.00 211.00" xmlns="http://www.w3.org/2000/svg" xmlns:xlink="http://www.w3.org/1999/xlink">
<g id="graph0" class="graph" transform="scale(1 1) rotate(0) translate(4 207)">
<title>dependencies</title>
<polygon fill="white" stroke="transparent" points="-4,4 -4,-207 500,-207 500,4 -4,4"/>
<text text-anchor="start" x="227.01" y="-42.4" font-family="sans-serif" font-weight="bold" font-size="14.00">Legend</text>
<polygon fill="#ffffb3" stroke="transparent" points="14,-10 14,-30 34,-30 34,-10 14,-10"/>
<text text-anchor="start" x="37.63" y="-15.4" font-family="sans-serif" font-size="14.00"> &#160;Declarations</text>
<polygon fill="#8dd3c7" stroke="transparent" points="127,-10 127,-30 147,-30 147,-10 127,-10"/>
<text text-anchor="start" x="150.73" y="-15.4" font-family="sans-serif" font-size="14.00"> &#160;Module</text>
<polygon fill="#80b1d3" stroke="transparent" points="213,-10 213,-30 233,-30 233,-10 213,-10"/>
<text text-anchor="start" x="236.78" y="-15.4" font-family="sans-serif" font-size="14.00"> &#160;Bootstrap</text>
<polygon fill="#fdb462" stroke="transparent" points="310,-10 310,-30 330,-30 330,-10 310,-10"/>
<text text-anchor="start" x="333.67" y="-15.4" font-family="sans-serif" font-size="14.00"> &#160;Providers</text>
<polygon fill="#fb8072" stroke="transparent" points="406,-10 406,-30 426,-30 426,-10 406,-10"/>
<text text-anchor="start" x="429.73" y="-15.4" font-family="sans-serif" font-size="14.00"> &#160;Exports</text>
<g id="clust1" class="cluster">
<title>cluster_AppModule</title>
<polygon fill="none" stroke="black" stroke-dasharray="1,5" points="68,-70 68,-195 428,-195 428,-70 68,-70"/>
</g>
<g id="clust3" class="cluster">
<title>cluster_AppModule_imports</title>
<polygon fill="none" stroke="black" points="214,-78 214,-130 420,-130 420,-78 214,-78"/>
</g>
<g id="clust6" class="cluster">
<title>cluster_AppModule_providers</title>
<polygon fill="none" stroke="black" points="76,-78 76,-130 206,-130 206,-78 76,-78"/>
</g>
<!-- CatsModule -->
<g id="node1" class="node">
<title>CatsModule</title>
<polygon fill="#8dd3c7" stroke="black" points="412.44,-122 409.44,-126 388.44,-126 385.44,-122 327.56,-122 327.56,-86 412.44,-86 412.44,-122"/>
<text text-anchor="middle" x="370" y="-99.8" font-family="Times,serif" font-size="14.00">CatsModule</text>
</g>
<!-- AppModule -->
<g id="node3" class="node">
<title>AppModule</title>
<polygon fill="#8dd3c7" stroke="black" points="307.66,-187 304.66,-191 283.66,-191 280.66,-187 224.34,-187 224.34,-151 307.66,-151 307.66,-187"/>
<text text-anchor="middle" x="266" y="-164.8" font-family="Times,serif" font-size="14.00">AppModule</text>
</g>
<!-- CatsModule&#45;&gt;AppModule -->
<g id="edge1" class="edge">
<title>CatsModule&#45;&gt;AppModule</title>
<path fill="none" stroke="black" d="M370,-122.11C370,-141.34 370,-169 370,-169 370,-169 317.7,-169 317.7,-169"/>
<polygon fill="black" stroke="black" points="317.7,-165.5 307.7,-169 317.7,-172.5 317.7,-165.5"/>
</g>
<!-- CronModule -->
<g id="node2" class="node">
<title>CronModule</title>
<polygon fill="#8dd3c7" stroke="black" points="309.55,-122 306.55,-126 285.55,-126 282.55,-122 222.45,-122 222.45,-86 309.55,-86 309.55,-122"/>
<text text-anchor="middle" x="266" y="-99.8" font-family="Times,serif" font-size="14.00">CronModule</text>
</g>
<!-- CronModule&#45;&gt;AppModule -->
<g id="edge2" class="edge">
<title>CronModule&#45;&gt;AppModule</title>
<path fill="none" stroke="black" d="M266,-122.11C266,-122.11 266,-140.99 266,-140.99"/>
<polygon fill="black" stroke="black" points="262.5,-140.99 266,-150.99 269.5,-140.99 262.5,-140.99"/>
</g>
<!-- AppService -->
<g id="node4" class="node">
<title>AppService</title>
<ellipse fill="#fdb462" stroke="black" cx="141" cy="-104" rx="56.74" ry="18"/>
<text text-anchor="middle" x="141" y="-99.8" font-family="Times,serif" font-size="14.00">AppService</text>
</g>
<!-- AppService&#45;&gt;AppModule -->
<g id="edge3" class="edge">
<title>AppService&#45;&gt;AppModule</title>
<path fill="none" stroke="black" d="M141,-122.11C141,-141.34 141,-169 141,-169 141,-169 214.03,-169 214.03,-169"/>
<polygon fill="black" stroke="black" points="214.03,-172.5 224.03,-169 214.03,-165.5 214.03,-172.5"/>
</g>
</g>
</svg>
