<?xml version="1.0" encoding="UTF-8" standalone="no"?>
<!DOCTYPE svg PUBLIC "-//W3C//DTD SVG 1.1//EN"
 "http://www.w3.org/Graphics/SVG/1.1/DTD/svg11.dtd">
<!-- Generated by graphviz version 2.44.1 (20200629.0846)
 -->
<!-- Title: dependencies Pages: 1 -->
<svg width="504pt" height="211pt"
 viewBox="0.00 0.00 504.00 211.00" xmlns="http://www.w3.org/2000/svg" xmlns:xlink="http://www.w3.org/1999/xlink">
<g id="graph0" class="graph" transform="scale(1 1) rotate(0) translate(4 207)">
<title>dependencies</title>
<polygon fill="white" stroke="transparent" points="-4,4 -4,-207 500,-207 500,4 -4,4"/>
<text text-anchor="start" x="227.01" y="-42.4" font-family="sans-serif" font-weight="bold" font-size="14.00">Legend</text>
<polygon fill="#ffffb3" stroke="transparent" points="14,-10 14,-30 34,-30 34,-10 14,-10"/>
<text text-anchor="start" x="37.63" y="-15.4" font-family="sans-serif" font-size="14.00"> &#160;Declarations</text>
<polygon fill="#8dd3c7" stroke="transparent" points="127,-10 127,-30 147,-30 147,-10 127,-10"/>
<text text-anchor="start" x="150.73" y="-15.4" font-family="sans-serif" font-size="14.00"> &#160;Module</text>
<polygon fill="#80b1d3" stroke="transparent" points="213,-10 213,-30 233,-30 233,-10 213,-10"/>
<text text-anchor="start" x="236.78" y="-15.4" font-family="sans-serif" font-size="14.00"> &#160;Bootstrap</text>
<polygon fill="#fdb462" stroke="transparent" points="310,-10 310,-30 330,-30 330,-10 310,-10"/>
<text text-anchor="start" x="333.67" y="-15.4" font-family="sans-serif" font-size="14.00"> &#160;Providers</text>
<polygon fill="#fb8072" stroke="transparent" points="406,-10 406,-30 426,-30 426,-10 406,-10"/>
<text text-anchor="start" x="429.73" y="-15.4" font-family="sans-serif" font-size="14.00"> &#160;Exports</text>
<g id="clust1" class="cluster">
<title>cluster_CronModule</title>
<polygon fill="none" stroke="black" stroke-dasharray="1,5" points="70,-70 70,-195 426,-195 426,-70 70,-70"/>
</g>
<g id="clust6" class="cluster">
<title>cluster_CronModule_providers</title>
<polygon fill="none" stroke="black" points="78,-78 78,-130 418,-130 418,-78 78,-78"/>
</g>
<!-- CronService -->
<g id="node1" class="node">
<title>CronService</title>
<ellipse fill="#fdb462" stroke="black" cx="351" cy="-104" rx="59.11" ry="18"/>
<text text-anchor="middle" x="351" y="-99.8" font-family="Times,serif" font-size="14.00">CronService</text>
</g>
<!-- CronModule -->
<g id="node3" class="node">
<title>CronModule</title>
<polygon fill="#8dd3c7" stroke="black" points="308.55,-187 305.55,-191 284.55,-191 281.55,-187 221.45,-187 221.45,-151 308.55,-151 308.55,-187"/>
<text text-anchor="middle" x="265" y="-164.8" font-family="Times,serif" font-size="14.00">CronModule</text>
</g>
<!-- CronService&#45;&gt;CronModule -->
<g id="edge1" class="edge">
<title>CronService&#45;&gt;CronModule</title>
<path fill="none" stroke="black" d="M300.23,-113.31C300.23,-113.31 300.23,-140.85 300.23,-140.85"/>
<polygon fill="black" stroke="black" points="296.73,-140.85 300.23,-150.85 303.73,-140.85 296.73,-140.85"/>
</g>
<!-- PersistedCronService -->
<g id="node2" class="node">
<title>PersistedCronService</title>
<ellipse fill="#fdb462" stroke="black" cx="180" cy="-104" rx="94.33" ry="18"/>
<text text-anchor="middle" x="180" y="-99.8" font-family="Times,serif" font-size="14.00">PersistedCronService</text>
</g>
<!-- PersistedCronService&#45;&gt;CronModule -->
<g id="edge2" class="edge">
<title>PersistedCronService&#45;&gt;CronModule</title>
<path fill="none" stroke="black" d="M247.7,-116.53C247.7,-116.53 247.7,-140.85 247.7,-140.85"/>
<polygon fill="black" stroke="black" points="244.2,-140.85 247.7,-150.85 251.2,-140.85 244.2,-140.85"/>
</g>
</g>
</svg>
