<?xml version="1.0" encoding="UTF-8" standalone="no"?>
<!DOCTYPE svg PUBLIC "-//W3C//DTD SVG 1.1//EN"
 "http://www.w3.org/Graphics/SVG/1.1/DTD/svg11.dtd">
<!-- Generated by graphviz version 2.44.1 (20200629.0846)
 -->
<!-- Title: dependencies Pages: 1 -->
<svg width="504pt" height="211pt"
 viewBox="0.00 0.00 504.00 211.00" xmlns="http://www.w3.org/2000/svg" xmlns:xlink="http://www.w3.org/1999/xlink">
<g id="graph0" class="graph" transform="scale(1 1) rotate(0) translate(4 207)">
<title>dependencies</title>
<polygon fill="white" stroke="transparent" points="-4,4 -4,-207 500,-207 500,4 -4,4"/>
<text text-anchor="start" x="227.01" y="-42.4" font-family="sans-serif" font-weight="bold" font-size="14.00">Legend</text>
<polygon fill="#ffffb3" stroke="transparent" points="14,-10 14,-30 34,-30 34,-10 14,-10"/>
<text text-anchor="start" x="37.63" y="-15.4" font-family="sans-serif" font-size="14.00"> &#160;Declarations</text>
<polygon fill="#8dd3c7" stroke="transparent" points="127,-10 127,-30 147,-30 147,-10 127,-10"/>
<text text-anchor="start" x="150.73" y="-15.4" font-family="sans-serif" font-size="14.00"> &#160;Module</text>
<polygon fill="#80b1d3" stroke="transparent" points="213,-10 213,-30 233,-30 233,-10 213,-10"/>
<text text-anchor="start" x="236.78" y="-15.4" font-family="sans-serif" font-size="14.00"> &#160;Bootstrap</text>
<polygon fill="#fdb462" stroke="transparent" points="310,-10 310,-30 330,-30 330,-10 310,-10"/>
<text text-anchor="start" x="333.67" y="-15.4" font-family="sans-serif" font-size="14.00"> &#160;Providers</text>
<polygon fill="#fb8072" stroke="transparent" points="406,-10 406,-30 426,-30 426,-10 406,-10"/>
<text text-anchor="start" x="429.73" y="-15.4" font-family="sans-serif" font-size="14.00"> &#160;Exports</text>
<g id="clust1" class="cluster">
<title>cluster_QueueModule</title>
<polygon fill="none" stroke="black" stroke-dasharray="1,5" points="111,-70 111,-195 385,-195 385,-70 111,-70"/>
</g>
<g id="clust3" class="cluster">
<title>cluster_QueueModule_imports</title>
<polygon fill="none" stroke="black" points="273,-78 273,-130 377,-130 377,-78 273,-78"/>
</g>
<g id="clust6" class="cluster">
<title>cluster_QueueModule_providers</title>
<polygon fill="none" stroke="black" points="119,-78 119,-130 265,-130 265,-78 119,-78"/>
</g>
<!-- CronModule -->
<g id="node1" class="node">
<title>CronModule</title>
<polygon fill="#8dd3c7" stroke="black" points="368.55,-122 365.55,-126 344.55,-126 341.55,-122 281.45,-122 281.45,-86 368.55,-86 368.55,-122"/>
<text text-anchor="middle" x="325" y="-99.8" font-family="Times,serif" font-size="14.00">CronModule</text>
</g>
<!-- QueueModule -->
<g id="node2" class="node">
<title>QueueModule</title>
<polygon fill="#8dd3c7" stroke="black" points="306.09,-187 303.09,-191 282.09,-191 279.09,-187 209.91,-187 209.91,-151 306.09,-151 306.09,-187"/>
<text text-anchor="middle" x="258" y="-164.8" font-family="Times,serif" font-size="14.00">QueueModule</text>
</g>
<!-- CronModule&#45;&gt;QueueModule -->
<g id="edge1" class="edge">
<title>CronModule&#45;&gt;QueueModule</title>
<path fill="none" stroke="black" d="M293.63,-122.11C293.63,-122.11 293.63,-140.99 293.63,-140.99"/>
<polygon fill="black" stroke="black" points="290.13,-140.99 293.63,-150.99 297.13,-140.99 290.13,-140.99"/>
</g>
<!-- QueueService -->
<g id="node3" class="node">
<title>QueueService</title>
<ellipse fill="#fdb462" stroke="black" cx="192" cy="-104" rx="65.39" ry="18"/>
<text text-anchor="middle" x="192" y="-99.8" font-family="Times,serif" font-size="14.00">QueueService</text>
</g>
<!-- QueueService&#45;&gt;QueueModule -->
<g id="edge2" class="edge">
<title>QueueService&#45;&gt;QueueModule</title>
<path fill="none" stroke="black" d="M233.58,-118.1C233.58,-118.1 233.58,-140.72 233.58,-140.72"/>
<polygon fill="black" stroke="black" points="230.08,-140.72 233.58,-150.72 237.08,-140.72 230.08,-140.72"/>
</g>
</g>
</svg>
