<?xml version="1.0" encoding="UTF-8" standalone="no"?>
<!DOCTYPE svg PUBLIC "-//W3C//DTD SVG 1.1//EN"
 "http://www.w3.org/Graphics/SVG/1.1/DTD/svg11.dtd">
<!-- Generated by graphviz version 2.44.1 (20200629.0846)
 -->
<!-- Title: dependencies Pages: 1 -->
<svg width="2172pt" height="298pt"
 viewBox="0.00 0.00 2172.00 298.00" xmlns="http://www.w3.org/2000/svg" xmlns:xlink="http://www.w3.org/1999/xlink">
<g id="graph0" class="graph" transform="scale(1 1) rotate(0) translate(4 294)">
<title>dependencies</title>
<polygon fill="white" stroke="transparent" points="-4,4 -4,-294 2168,-294 2168,4 -4,4"/>
<text text-anchor="start" x="1061.01" y="-42.4" font-family="sans-serif" font-weight="bold" font-size="14.00">Legend</text>
<polygon fill="#ffffb3" stroke="transparent" points="848,-10 848,-30 868,-30 868,-10 848,-10"/>
<text text-anchor="start" x="871.63" y="-15.4" font-family="sans-serif" font-size="14.00"> &#160;Declarations</text>
<polygon fill="#8dd3c7" stroke="transparent" points="961,-10 961,-30 981,-30 981,-10 961,-10"/>
<text text-anchor="start" x="984.73" y="-15.4" font-family="sans-serif" font-size="14.00"> &#160;Module</text>
<polygon fill="#80b1d3" stroke="transparent" points="1047,-10 1047,-30 1067,-30 1067,-10 1047,-10"/>
<text text-anchor="start" x="1070.78" y="-15.4" font-family="sans-serif" font-size="14.00"> &#160;Bootstrap</text>
<polygon fill="#fdb462" stroke="transparent" points="1144,-10 1144,-30 1164,-30 1164,-10 1144,-10"/>
<text text-anchor="start" x="1167.67" y="-15.4" font-family="sans-serif" font-size="14.00"> &#160;Providers</text>
<polygon fill="#fb8072" stroke="transparent" points="1240,-10 1240,-30 1260,-30 1260,-10 1240,-10"/>
<text text-anchor="start" x="1263.73" y="-15.4" font-family="sans-serif" font-size="14.00"> &#160;Exports</text>
<g id="clust31" class="cluster">
<title>cluster_EmailSchedulingModule</title>
<polygon fill="none" stroke="black" stroke-dasharray="1,5" points="1352,-70 1352,-206 1714,-206 1714,-70 1352,-70"/>
</g>
<g id="clust33" class="cluster">
<title>cluster_EmailSchedulingModule_imports</title>
<polygon fill="none" stroke="black" points="1598,-78 1598,-130 1706,-130 1706,-78 1598,-78"/>
</g>
<g id="clust36" class="cluster">
<title>cluster_EmailSchedulingModule_providers</title>
<polygon fill="none" stroke="black" points="1360,-78 1360,-130 1590,-130 1590,-78 1360,-78"/>
</g>
<g id="clust37" class="cluster">
<title>cluster_TagsModule</title>
<polygon fill="none" stroke="black" stroke-dasharray="1,5" points="2006,-70 2006,-282 2156,-282 2156,-70 2006,-70"/>
</g>
<g id="clust40" class="cluster">
<title>cluster_TagsModule_exports</title>
<polygon fill="none" stroke="black" points="2021,-222 2021,-274 2125,-274 2125,-222 2021,-222"/>
</g>
<g id="clust42" class="cluster">
<title>cluster_TagsModule_providers</title>
<polygon fill="none" stroke="black" points="2014,-78 2014,-130 2148,-130 2148,-78 2014,-78"/>
</g>
<g id="clust13" class="cluster">
<title>cluster_CronModule</title>
<polygon fill="none" stroke="black" stroke-dasharray="1,5" points="8,-70 8,-206 364,-206 364,-70 8,-70"/>
</g>
<g id="clust18" class="cluster">
<title>cluster_CronModule_providers</title>
<polygon fill="none" stroke="black" points="16,-78 16,-130 356,-130 356,-78 16,-78"/>
</g>
<g id="clust1" class="cluster">
<title>cluster_AppModule</title>
<polygon fill="none" stroke="black" stroke-dasharray="1,5" points="654,-70 654,-274 906,-274 906,-70 654,-70"/>
</g>
<g id="clust3" class="cluster">
<title>cluster_AppModule_imports</title>
<polygon fill="none" stroke="black" points="662,-78 662,-206 898,-206 898,-78 662,-78"/>
</g>
<g id="clust7" class="cluster">
<title>cluster_AuthModule</title>
<polygon fill="none" stroke="black" stroke-dasharray="1,5" points="914,-70 914,-138 1344,-138 1344,-70 914,-70"/>
</g>
<g id="clust12" class="cluster">
<title>cluster_AuthModule_providers</title>
<polygon fill="none" stroke="black" points="922,-78 922,-130 1336,-130 1336,-78 922,-78"/>
</g>
<g id="clust25" class="cluster">
<title>cluster_EmailModule</title>
<polygon fill="none" stroke="black" stroke-dasharray="1,5" points="1722,-146 1722,-214 1998,-214 1998,-146 1722,-146"/>
</g>
<g id="clust28" class="cluster">
<title>cluster_EmailModule_exports</title>
<polygon fill="none" stroke="black" points="1880,-154 1880,-206 1990,-206 1990,-154 1880,-154"/>
</g>
<g id="clust30" class="cluster">
<title>cluster_EmailModule_providers</title>
<polygon fill="none" stroke="black" points="1730,-154 1730,-206 1872,-206 1872,-154 1730,-154"/>
</g>
<g id="clust43" class="cluster">
<title>cluster_UsersModule</title>
<polygon fill="none" stroke="black" stroke-dasharray="1,5" points="372,-146 372,-214 646,-214 646,-146 372,-146"/>
</g>
<g id="clust46" class="cluster">
<title>cluster_UsersModule_exports</title>
<polygon fill="none" stroke="black" points="528,-154 528,-206 638,-206 638,-154 528,-154"/>
</g>
<g id="clust48" class="cluster">
<title>cluster_UsersModule_providers</title>
<polygon fill="none" stroke="black" points="380,-154 380,-206 520,-206 520,-154 380,-154"/>
</g>
<!-- AuthModule -->
<g id="node1" class="node">
<title>AuthModule</title>
<polygon fill="#8dd3c7" stroke="black" points="889.55,-198 886.55,-202 865.55,-202 862.55,-198 802.45,-198 802.45,-162 889.55,-162 889.55,-198"/>
<text text-anchor="middle" x="846" y="-175.8" font-family="Times,serif" font-size="14.00">AuthModule</text>
</g>
<!-- AppModule -->
<g id="node7" class="node">
<title>AppModule</title>
<polygon fill="#8dd3c7" stroke="black" points="855.66,-266 852.66,-270 831.66,-270 828.66,-266 772.34,-266 772.34,-230 855.66,-230 855.66,-266"/>
<text text-anchor="middle" x="814" y="-243.8" font-family="Times,serif" font-size="14.00">AppModule</text>
</g>
<!-- AuthModule&#45;&gt;AppModule -->
<g id="edge1" class="edge">
<title>AuthModule&#45;&gt;AppModule</title>
<path fill="none" stroke="black" d="M829.03,-198.22C829.03,-198.22 829.03,-219.73 829.03,-219.73"/>
<polygon fill="black" stroke="black" points="825.53,-219.73 829.03,-229.73 832.53,-219.73 825.53,-219.73"/>
</g>
<!-- CronModule -->
<g id="node2" class="node">
<title>CronModule</title>
<polygon fill="#8dd3c7" stroke="black" points="332.55,-198 329.55,-202 308.55,-202 305.55,-198 245.45,-198 245.45,-162 332.55,-162 332.55,-198"/>
<text text-anchor="middle" x="289" y="-175.8" font-family="Times,serif" font-size="14.00">CronModule</text>
</g>
<!-- CronModule&#45;&gt;AppModule -->
<g id="edge2" class="edge">
<title>CronModule&#45;&gt;AppModule</title>
<path fill="none" stroke="black" d="M289,-198.22C289,-218.37 289,-248 289,-248 289,-248 761.92,-248 761.92,-248"/>
<polygon fill="black" stroke="black" points="761.92,-251.5 771.92,-248 761.92,-244.5 761.92,-251.5"/>
</g>
<!-- DatabaseModule -->
<g id="node3" class="node">
<title>DatabaseModule</title>
<polygon fill="#8dd3c7" stroke="black" points="890.35,-122 887.35,-126 866.35,-126 863.35,-122 779.65,-122 779.65,-86 890.35,-86 890.35,-122"/>
<text text-anchor="middle" x="835" y="-99.8" font-family="Times,serif" font-size="14.00">DatabaseModule</text>
</g>
<!-- DatabaseModule&#45;&gt;AppModule -->
<g id="edge3" class="edge">
<title>DatabaseModule&#45;&gt;AppModule</title>
<path fill="none" stroke="black" d="M790.9,-122.24C790.9,-122.24 790.9,-219.91 790.9,-219.91"/>
<polygon fill="black" stroke="black" points="787.4,-219.91 790.9,-229.91 794.4,-219.91 787.4,-219.91"/>
</g>
<!-- EmailSchedulingModule -->
<g id="node4" class="node">
<title>EmailSchedulingModule</title>
<polygon fill="#8dd3c7" stroke="black" points="1552.98,-198 1549.98,-202 1528.98,-202 1525.98,-198 1397.02,-198 1397.02,-162 1552.98,-162 1552.98,-198"/>
<text text-anchor="middle" x="1475" y="-175.8" font-family="Times,serif" font-size="14.00">EmailSchedulingModule</text>
</g>
<!-- EmailSchedulingModule&#45;&gt;AppModule -->
<g id="edge4" class="edge">
<title>EmailSchedulingModule&#45;&gt;AppModule</title>
<path fill="none" stroke="black" d="M1475,-198.27C1475,-216.56 1475,-242 1475,-242 1475,-242 865.85,-242 865.85,-242"/>
<polygon fill="black" stroke="black" points="865.85,-238.5 855.85,-242 865.85,-245.5 865.85,-238.5"/>
</g>
<!-- TagsModule -->
<g id="node5" class="node">
<title>TagsModule</title>
<polygon fill="#8dd3c7" stroke="black" points="2116.26,-198 2113.26,-202 2092.26,-202 2089.26,-198 2029.74,-198 2029.74,-162 2116.26,-162 2116.26,-198"/>
<text text-anchor="middle" x="2073" y="-175.8" font-family="Times,serif" font-size="14.00">TagsModule</text>
</g>
<!-- TagsModule&#45;&gt;AppModule -->
<g id="edge5" class="edge">
<title>TagsModule&#45;&gt;AppModule</title>
<path fill="none" stroke="black" d="M2029.46,-180C2014.92,-180 2002.35,-180 2002.35,-180 2002.35,-180 2002.35,-254 2002.35,-254 2002.35,-254 865.94,-254 865.94,-254"/>
<polygon fill="black" stroke="black" points="865.94,-250.5 855.94,-254 865.94,-257.5 865.94,-250.5"/>
</g>
<!-- TagsService  -->
<g id="node17" class="node">
<title>TagsService </title>
<polygon fill="#fb8072" stroke="black" points="2117.19,-266 2028.81,-266 2028.81,-230 2117.19,-230 2117.19,-266"/>
<text text-anchor="middle" x="2073" y="-243.8" font-family="Times,serif" font-size="14.00">TagsService </text>
</g>
<!-- TagsModule&#45;&gt;TagsService  -->
<g id="edge17" class="edge">
<title>TagsModule&#45;&gt;TagsService </title>
<path fill="none" stroke="black" stroke-dasharray="5,2" d="M2073,-198.22C2073,-198.22 2073,-219.73 2073,-219.73"/>
<polygon fill="black" stroke="black" points="2069.5,-219.73 2073,-229.73 2076.5,-219.73 2069.5,-219.73"/>
</g>
<!-- UsersModule -->
<g id="node6" class="node">
<title>UsersModule</title>
<polygon fill="#8dd3c7" stroke="black" points="761.92,-122 758.92,-126 737.92,-126 734.92,-122 670.08,-122 670.08,-86 761.92,-86 761.92,-122"/>
<text text-anchor="middle" x="716" y="-99.8" font-family="Times,serif" font-size="14.00">UsersModule</text>
</g>
<!-- UsersModule&#45;&gt;AuthModule -->
<g id="edge7" class="edge">
<title>UsersModule&#45;&gt;AuthModule</title>
<path fill="none" stroke="black" d="M731.24,-122.2C731.24,-146.36 731.24,-186 731.24,-186 731.24,-186 792.29,-186 792.29,-186"/>
<polygon fill="black" stroke="black" points="792.29,-189.5 802.29,-186 792.29,-182.5 792.29,-189.5"/>
</g>
<!-- UsersModule&#45;&gt;AppModule -->
<g id="edge6" class="edge">
<title>UsersModule&#45;&gt;AppModule</title>
<path fill="none" stroke="black" d="M761.99,-104C770.03,-104 775.87,-104 775.87,-104 775.87,-104 775.87,-219.76 775.87,-219.76"/>
<polygon fill="black" stroke="black" points="772.37,-219.76 775.87,-229.76 779.37,-219.76 772.37,-219.76"/>
</g>
<!-- UsersService  -->
<g id="node19" class="node">
<title>UsersService </title>
<polygon fill="#fb8072" stroke="black" points="629.85,-198 536.15,-198 536.15,-162 629.85,-162 629.85,-198"/>
<text text-anchor="middle" x="583" y="-175.8" font-family="Times,serif" font-size="14.00">UsersService </text>
</g>
<!-- UsersModule&#45;&gt;UsersService  -->
<g id="edge19" class="edge">
<title>UsersModule&#45;&gt;UsersService </title>
<path fill="none" stroke="black" stroke-dasharray="5,2" d="M700.76,-122.03C700.76,-142.77 700.76,-174 700.76,-174 700.76,-174 639.88,-174 639.88,-174"/>
<polygon fill="black" stroke="black" points="639.88,-170.5 629.88,-174 639.88,-177.5 639.88,-170.5"/>
</g>
<!-- AuthService -->
<g id="node8" class="node">
<title>AuthService</title>
<ellipse fill="#fdb462" stroke="black" cx="1269" cy="-104" rx="59.11" ry="18"/>
<text text-anchor="middle" x="1269" y="-99.8" font-family="Times,serif" font-size="14.00">AuthService</text>
</g>
<!-- AuthService&#45;&gt;AuthModule -->
<g id="edge8" class="edge">
<title>AuthService&#45;&gt;AuthModule</title>
<path fill="none" stroke="black" d="M1269,-122.03C1269,-146.98 1269,-189 1269,-189 1269,-189 899.68,-189 899.68,-189"/>
<polygon fill="black" stroke="black" points="899.68,-185.5 889.68,-189 899.68,-192.5 899.68,-185.5"/>
</g>
<!-- JwtStrategy -->
<g id="node9" class="node">
<title>JwtStrategy</title>
<ellipse fill="#fdb462" stroke="black" cx="1135" cy="-104" rx="56.76" ry="18"/>
<text text-anchor="middle" x="1135" y="-99.8" font-family="Times,serif" font-size="14.00">JwtStrategy</text>
</g>
<!-- JwtStrategy&#45;&gt;AuthModule -->
<g id="edge9" class="edge">
<title>JwtStrategy&#45;&gt;AuthModule</title>
<path fill="none" stroke="black" d="M1135,-122.01C1135,-144.49 1135,-180 1135,-180 1135,-180 899.58,-180 899.58,-180"/>
<polygon fill="black" stroke="black" points="899.58,-176.5 889.58,-180 899.58,-183.5 899.58,-176.5"/>
</g>
<!-- LocalStrategy -->
<g id="node10" class="node">
<title>LocalStrategy</title>
<ellipse fill="#fdb462" stroke="black" cx="995" cy="-104" rx="65.41" ry="18"/>
<text text-anchor="middle" x="995" y="-99.8" font-family="Times,serif" font-size="14.00">LocalStrategy</text>
</g>
<!-- LocalStrategy&#45;&gt;AuthModule -->
<g id="edge10" class="edge">
<title>LocalStrategy&#45;&gt;AuthModule</title>
<path fill="none" stroke="black" d="M995,-122.31C995,-142.15 995,-171 995,-171 995,-171 899.9,-171 899.9,-171"/>
<polygon fill="black" stroke="black" points="899.9,-167.5 889.9,-171 899.9,-174.5 899.9,-167.5"/>
</g>
<!-- CronService -->
<g id="node11" class="node">
<title>CronService</title>
<ellipse fill="#fdb462" stroke="black" cx="289" cy="-104" rx="59.11" ry="18"/>
<text text-anchor="middle" x="289" y="-99.8" font-family="Times,serif" font-size="14.00">CronService</text>
</g>
<!-- CronService&#45;&gt;CronModule -->
<g id="edge11" class="edge">
<title>CronService&#45;&gt;CronModule</title>
<path fill="none" stroke="black" d="M289,-122.01C289,-122.01 289,-151.85 289,-151.85"/>
<polygon fill="black" stroke="black" points="285.5,-151.85 289,-161.85 292.5,-151.85 285.5,-151.85"/>
</g>
<!-- PersistedCronService -->
<g id="node12" class="node">
<title>PersistedCronService</title>
<ellipse fill="#fdb462" stroke="black" cx="118" cy="-104" rx="94.33" ry="18"/>
<text text-anchor="middle" x="118" y="-99.8" font-family="Times,serif" font-size="14.00">PersistedCronService</text>
</g>
<!-- PersistedCronService&#45;&gt;CronModule -->
<g id="edge12" class="edge">
<title>PersistedCronService&#45;&gt;CronModule</title>
<path fill="none" stroke="black" d="M118,-122.01C118,-144.49 118,-180 118,-180 118,-180 235.41,-180 235.41,-180"/>
<polygon fill="black" stroke="black" points="235.41,-183.5 245.41,-180 235.41,-176.5 235.41,-183.5"/>
</g>
<!-- EmailService  -->
<g id="node13" class="node">
<title>EmailService </title>
<polygon fill="#fb8072" stroke="black" points="1982.42,-198 1887.58,-198 1887.58,-162 1982.42,-162 1982.42,-198"/>
<text text-anchor="middle" x="1935" y="-175.8" font-family="Times,serif" font-size="14.00">EmailService </text>
</g>
<!-- EmailModule -->
<g id="node14" class="node">
<title>EmailModule</title>
<polygon fill="#8dd3c7" stroke="black" points="1698.49,-122 1695.49,-126 1674.49,-126 1671.49,-122 1605.51,-122 1605.51,-86 1698.49,-86 1698.49,-122"/>
<text text-anchor="middle" x="1652" y="-99.8" font-family="Times,serif" font-size="14.00">EmailModule</text>
</g>
<!-- EmailModule&#45;&gt;EmailSchedulingModule -->
<g id="edge15" class="edge">
<title>EmailModule&#45;&gt;EmailSchedulingModule</title>
<path fill="none" stroke="black" d="M1636.5,-122.03C1636.5,-142.77 1636.5,-174 1636.5,-174 1636.5,-174 1563.39,-174 1563.39,-174"/>
<polygon fill="black" stroke="black" points="1563.39,-170.5 1553.39,-174 1563.39,-177.5 1563.39,-170.5"/>
</g>
<!-- EmailModule&#45;&gt;EmailService  -->
<g id="edge13" class="edge">
<title>EmailModule&#45;&gt;EmailService </title>
<path fill="none" stroke="black" stroke-dasharray="5,2" d="M1698.73,-104C1779.11,-104 1935,-104 1935,-104 1935,-104 1935,-151.99 1935,-151.99"/>
<polygon fill="black" stroke="black" points="1931.5,-151.99 1935,-161.99 1938.5,-151.99 1931.5,-151.99"/>
</g>
<!-- EmailService -->
<g id="node15" class="node">
<title>EmailService</title>
<ellipse fill="#fdb462" stroke="black" cx="1801" cy="-180" rx="63.12" ry="18"/>
<text text-anchor="middle" x="1801" y="-175.8" font-family="Times,serif" font-size="14.00">EmailService</text>
</g>
<!-- EmailService&#45;&gt;EmailModule -->
<g id="edge14" class="edge">
<title>EmailService&#45;&gt;EmailModule</title>
<path fill="none" stroke="black" d="M1741.28,-186C1705.73,-186 1667.5,-186 1667.5,-186 1667.5,-186 1667.5,-132.2 1667.5,-132.2"/>
<polygon fill="black" stroke="black" points="1671,-132.2 1667.5,-122.2 1664,-132.2 1671,-132.2"/>
</g>
<!-- EmailSchedulingService -->
<g id="node16" class="node">
<title>EmailSchedulingService</title>
<ellipse fill="#fdb462" stroke="black" cx="1475" cy="-104" rx="106.52" ry="18"/>
<text text-anchor="middle" x="1475" y="-99.8" font-family="Times,serif" font-size="14.00">EmailSchedulingService</text>
</g>
<!-- EmailSchedulingService&#45;&gt;EmailSchedulingModule -->
<g id="edge16" class="edge">
<title>EmailSchedulingService&#45;&gt;EmailSchedulingModule</title>
<path fill="none" stroke="black" d="M1475,-122.01C1475,-122.01 1475,-151.85 1475,-151.85"/>
<polygon fill="black" stroke="black" points="1471.5,-151.85 1475,-161.85 1478.5,-151.85 1471.5,-151.85"/>
</g>
<!-- TagsService -->
<g id="node18" class="node">
<title>TagsService</title>
<ellipse fill="#fdb462" stroke="black" cx="2081" cy="-104" rx="58.53" ry="18"/>
<text text-anchor="middle" x="2081" y="-99.8" font-family="Times,serif" font-size="14.00">TagsService</text>
</g>
<!-- TagsService&#45;&gt;TagsModule -->
<g id="edge18" class="edge">
<title>TagsService&#45;&gt;TagsModule</title>
<path fill="none" stroke="black" d="M2073,-122.01C2073,-122.01 2073,-151.85 2073,-151.85"/>
<polygon fill="black" stroke="black" points="2069.5,-151.85 2073,-161.85 2076.5,-151.85 2069.5,-151.85"/>
</g>
<!-- UsersService -->
<g id="node20" class="node">
<title>UsersService</title>
<ellipse fill="#fdb462" stroke="black" cx="450" cy="-180" rx="61.95" ry="18"/>
<text text-anchor="middle" x="450" y="-175.8" font-family="Times,serif" font-size="14.00">UsersService</text>
</g>
<!-- UsersService&#45;&gt;UsersModule -->
<g id="edge20" class="edge">
<title>UsersService&#45;&gt;UsersModule</title>
<path fill="none" stroke="black" d="M450,-161.99C450,-139.51 450,-104 450,-104 450,-104 660.27,-104 660.27,-104"/>
<polygon fill="black" stroke="black" points="660.27,-107.5 670.27,-104 660.27,-100.5 660.27,-107.5"/>
</g>
</g>
</svg>
