<?xml version="1.0" encoding="UTF-8" standalone="no"?>
<!DOCTYPE svg PUBLIC "-//W3C//DTD SVG 1.1//EN"
 "http://www.w3.org/Graphics/SVG/1.1/DTD/svg11.dtd">
<!-- Generated by graphviz version 2.44.1 (20200629.0846)
 -->
<!-- Title: dependencies Pages: 1 -->
<svg width="1040pt" height="298pt"
 viewBox="0.00 0.00 1040.00 298.00" xmlns="http://www.w3.org/2000/svg" xmlns:xlink="http://www.w3.org/1999/xlink">
<g id="graph0" class="graph" transform="scale(1 1) rotate(0) translate(4 294)">
<title>dependencies</title>
<polygon fill="white" stroke="transparent" points="-4,4 -4,-294 1036,-294 1036,4 -4,4"/>
<text text-anchor="start" x="495.01" y="-42.4" font-family="sans-serif" font-weight="bold" font-size="14.00">Legend</text>
<polygon fill="#ffffb3" stroke="transparent" points="282,-10 282,-30 302,-30 302,-10 282,-10"/>
<text text-anchor="start" x="305.63" y="-15.4" font-family="sans-serif" font-size="14.00"> &#160;Declarations</text>
<polygon fill="#8dd3c7" stroke="transparent" points="395,-10 395,-30 415,-30 415,-10 395,-10"/>
<text text-anchor="start" x="418.73" y="-15.4" font-family="sans-serif" font-size="14.00"> &#160;Module</text>
<polygon fill="#80b1d3" stroke="transparent" points="481,-10 481,-30 501,-30 501,-10 481,-10"/>
<text text-anchor="start" x="504.78" y="-15.4" font-family="sans-serif" font-size="14.00"> &#160;Bootstrap</text>
<polygon fill="#fdb462" stroke="transparent" points="578,-10 578,-30 598,-30 598,-10 578,-10"/>
<text text-anchor="start" x="601.67" y="-15.4" font-family="sans-serif" font-size="14.00"> &#160;Providers</text>
<polygon fill="#fb8072" stroke="transparent" points="674,-10 674,-30 694,-30 694,-10 674,-10"/>
<text text-anchor="start" x="697.73" y="-15.4" font-family="sans-serif" font-size="14.00"> &#160;Exports</text>
<g id="clust1" class="cluster">
<title>cluster_AppModule</title>
<polygon fill="none" stroke="black" stroke-dasharray="1,5" points="8,-146 8,-274 478,-274 478,-146 8,-146"/>
</g>
<g id="clust3" class="cluster">
<title>cluster_AppModule_imports</title>
<polygon fill="none" stroke="black" points="154,-154 154,-206 470,-206 470,-154 154,-154"/>
</g>
<g id="clust6" class="cluster">
<title>cluster_AppModule_providers</title>
<polygon fill="none" stroke="black" points="16,-154 16,-206 146,-206 146,-154 16,-154"/>
</g>
<g id="clust7" class="cluster">
<title>cluster_CatsModule</title>
<polygon fill="none" stroke="black" stroke-dasharray="1,5" points="486,-214 486,-282 742,-282 742,-214 486,-214"/>
</g>
<g id="clust10" class="cluster">
<title>cluster_CatsModule_exports</title>
<polygon fill="none" stroke="black" points="632,-222 632,-274 734,-274 734,-222 632,-222"/>
</g>
<g id="clust12" class="cluster">
<title>cluster_CatsModule_providers</title>
<polygon fill="none" stroke="black" points="494,-222 494,-274 624,-274 624,-222 494,-222"/>
</g>
<g id="clust13" class="cluster">
<title>cluster_CronModule</title>
<polygon fill="none" stroke="black" stroke-dasharray="1,5" points="131,-70 131,-138 281,-138 281,-70 131,-70"/>
</g>
<g id="clust18" class="cluster">
<title>cluster_CronModule_providers</title>
<polygon fill="none" stroke="black" points="139,-78 139,-130 273,-130 273,-78 139,-78"/>
</g>
<g id="clust19" class="cluster">
<title>cluster_UsersModule</title>
<polygon fill="none" stroke="black" stroke-dasharray="1,5" points="750,-214 750,-282 1024,-282 1024,-214 750,-214"/>
</g>
<g id="clust22" class="cluster">
<title>cluster_UsersModule_exports</title>
<polygon fill="none" stroke="black" points="906,-222 906,-274 1016,-274 1016,-222 906,-222"/>
</g>
<g id="clust24" class="cluster">
<title>cluster_UsersModule_providers</title>
<polygon fill="none" stroke="black" points="758,-222 758,-274 898,-274 898,-222 758,-222"/>
</g>
<!-- CatsModule -->
<g id="node1" class="node">
<title>CatsModule</title>
<polygon fill="#8dd3c7" stroke="black" points="352.44,-198 349.44,-202 328.44,-202 325.44,-198 267.56,-198 267.56,-162 352.44,-162 352.44,-198"/>
<text text-anchor="middle" x="310" y="-175.8" font-family="Times,serif" font-size="14.00">CatsModule</text>
</g>
<!-- AppModule -->
<g id="node4" class="node">
<title>AppModule</title>
<polygon fill="#8dd3c7" stroke="black" points="299.66,-266 296.66,-270 275.66,-270 272.66,-266 216.34,-266 216.34,-230 299.66,-230 299.66,-266"/>
<text text-anchor="middle" x="258" y="-243.8" font-family="Times,serif" font-size="14.00">AppModule</text>
</g>
<!-- CatsModule&#45;&gt;AppModule -->
<g id="edge1" class="edge">
<title>CatsModule&#45;&gt;AppModule</title>
<path fill="none" stroke="black" d="M283.81,-198.22C283.81,-198.22 283.81,-219.73 283.81,-219.73"/>
<polygon fill="black" stroke="black" points="280.31,-219.73 283.81,-229.73 287.31,-219.73 280.31,-219.73"/>
</g>
<!-- CatsService  -->
<g id="node6" class="node">
<title>CatsService </title>
<polygon fill="#fb8072" stroke="black" points="726.36,-266 639.64,-266 639.64,-230 726.36,-230 726.36,-266"/>
<text text-anchor="middle" x="683" y="-243.8" font-family="Times,serif" font-size="14.00">CatsService </text>
</g>
<!-- CatsModule&#45;&gt;CatsService  -->
<g id="edge5" class="edge">
<title>CatsModule&#45;&gt;CatsService </title>
<path fill="none" stroke="black" stroke-dasharray="5,2" d="M317.29,-198.19C317.29,-206.28 317.29,-214 317.29,-214 317.29,-214 683,-214 683,-214 683,-214 683,-219.81 683,-219.81"/>
<polygon fill="black" stroke="black" points="679.5,-219.81 683,-229.81 686.5,-219.81 679.5,-219.81"/>
</g>
<!-- CronModule -->
<g id="node2" class="node">
<title>CronModule</title>
<polygon fill="#8dd3c7" stroke="black" points="249.55,-198 246.55,-202 225.55,-202 222.55,-198 162.45,-198 162.45,-162 249.55,-162 249.55,-198"/>
<text text-anchor="middle" x="206" y="-175.8" font-family="Times,serif" font-size="14.00">CronModule</text>
</g>
<!-- CronModule&#45;&gt;AppModule -->
<g id="edge2" class="edge">
<title>CronModule&#45;&gt;AppModule</title>
<path fill="none" stroke="black" d="M232.97,-198.22C232.97,-198.22 232.97,-219.73 232.97,-219.73"/>
<polygon fill="black" stroke="black" points="229.47,-219.73 232.97,-229.73 236.47,-219.73 229.47,-219.73"/>
</g>
<!-- UsersModule -->
<g id="node3" class="node">
<title>UsersModule</title>
<polygon fill="#8dd3c7" stroke="black" points="461.92,-198 458.92,-202 437.92,-202 434.92,-198 370.08,-198 370.08,-162 461.92,-162 461.92,-198"/>
<text text-anchor="middle" x="416" y="-175.8" font-family="Times,serif" font-size="14.00">UsersModule</text>
</g>
<!-- UsersModule&#45;&gt;AppModule -->
<g id="edge3" class="edge">
<title>UsersModule&#45;&gt;AppModule</title>
<path fill="none" stroke="black" d="M416,-198.27C416,-216.56 416,-242 416,-242 416,-242 309.93,-242 309.93,-242"/>
<polygon fill="black" stroke="black" points="309.93,-238.5 299.93,-242 309.93,-245.5 309.93,-238.5"/>
</g>
<!-- UsersService  -->
<g id="node9" class="node">
<title>UsersService </title>
<polygon fill="#fb8072" stroke="black" points="1007.85,-266 914.15,-266 914.15,-230 1007.85,-230 1007.85,-266"/>
<text text-anchor="middle" x="961" y="-243.8" font-family="Times,serif" font-size="14.00">UsersService </text>
</g>
<!-- UsersModule&#45;&gt;UsersService  -->
<g id="edge8" class="edge">
<title>UsersModule&#45;&gt;UsersService </title>
<path fill="none" stroke="black" stroke-dasharray="5,2" d="M462,-174C593.39,-174 961,-174 961,-174 961,-174 961,-219.71 961,-219.71"/>
<polygon fill="black" stroke="black" points="957.5,-219.71 961,-229.71 964.5,-219.71 957.5,-219.71"/>
</g>
<!-- AppService -->
<g id="node5" class="node">
<title>AppService</title>
<ellipse fill="#fdb462" stroke="black" cx="81" cy="-180" rx="56.74" ry="18"/>
<text text-anchor="middle" x="81" y="-175.8" font-family="Times,serif" font-size="14.00">AppService</text>
</g>
<!-- AppService&#45;&gt;AppModule -->
<g id="edge4" class="edge">
<title>AppService&#45;&gt;AppModule</title>
<path fill="none" stroke="black" d="M81,-198.22C81,-218.37 81,-248 81,-248 81,-248 206.05,-248 206.05,-248"/>
<polygon fill="black" stroke="black" points="206.05,-251.5 216.05,-248 206.05,-244.5 206.05,-251.5"/>
</g>
<!-- CatsService -->
<g id="node7" class="node">
<title>CatsService</title>
<ellipse fill="#fdb462" stroke="black" cx="559" cy="-248" rx="57.32" ry="18"/>
<text text-anchor="middle" x="559" y="-243.8" font-family="Times,serif" font-size="14.00">CatsService</text>
</g>
<!-- CatsService&#45;&gt;CatsModule -->
<g id="edge6" class="edge">
<title>CatsService&#45;&gt;CatsModule</title>
<path fill="none" stroke="black" d="M505,-254C438.65,-254 334.75,-254 334.75,-254 334.75,-254 334.75,-208.29 334.75,-208.29"/>
<polygon fill="black" stroke="black" points="338.25,-208.29 334.75,-198.29 331.25,-208.29 338.25,-208.29"/>
</g>
<!-- CronService -->
<g id="node8" class="node">
<title>CronService</title>
<ellipse fill="#fdb462" stroke="black" cx="206" cy="-104" rx="59.11" ry="18"/>
<text text-anchor="middle" x="206" y="-99.8" font-family="Times,serif" font-size="14.00">CronService</text>
</g>
<!-- CronService&#45;&gt;CronModule -->
<g id="edge7" class="edge">
<title>CronService&#45;&gt;CronModule</title>
<path fill="none" stroke="black" d="M206,-122.01C206,-122.01 206,-151.85 206,-151.85"/>
<polygon fill="black" stroke="black" points="202.5,-151.85 206,-161.85 209.5,-151.85 202.5,-151.85"/>
</g>
<!-- UsersService -->
<g id="node10" class="node">
<title>UsersService</title>
<ellipse fill="#fdb462" stroke="black" cx="828" cy="-248" rx="61.95" ry="18"/>
<text text-anchor="middle" x="828" y="-243.8" font-family="Times,serif" font-size="14.00">UsersService</text>
</g>
<!-- UsersService&#45;&gt;UsersModule -->
<g id="edge9" class="edge">
<title>UsersService&#45;&gt;UsersModule</title>
<path fill="none" stroke="black" d="M828,-229.73C828,-211.44 828,-186 828,-186 828,-186 472.06,-186 472.06,-186"/>
<polygon fill="black" stroke="black" points="472.06,-182.5 462.06,-186 472.06,-189.5 472.06,-182.5"/>
</g>
</g>
</svg>
