<?xml version="1.0" encoding="UTF-8" standalone="no"?>
<!DOCTYPE svg PUBLIC "-//W3C//DTD SVG 1.1//EN"
 "http://www.w3.org/Graphics/SVG/1.1/DTD/svg11.dtd">
<!-- Generated by graphviz version 2.44.1 (20200629.0846)
 -->
<!-- Title: dependencies Pages: 1 -->
<svg width="750pt" height="298pt"
 viewBox="0.00 0.00 750.00 298.00" xmlns="http://www.w3.org/2000/svg" xmlns:xlink="http://www.w3.org/1999/xlink">
<g id="graph0" class="graph" transform="scale(1 1) rotate(0) translate(4 294)">
<title>dependencies</title>
<polygon fill="white" stroke="transparent" points="-4,4 -4,-294 746,-294 746,4 -4,4"/>
<text text-anchor="start" x="350.01" y="-42.4" font-family="sans-serif" font-weight="bold" font-size="14.00">Legend</text>
<polygon fill="#ffffb3" stroke="transparent" points="137,-10 137,-30 157,-30 157,-10 137,-10"/>
<text text-anchor="start" x="160.63" y="-15.4" font-family="sans-serif" font-size="14.00"> &#160;Declarations</text>
<polygon fill="#8dd3c7" stroke="transparent" points="250,-10 250,-30 270,-30 270,-10 250,-10"/>
<text text-anchor="start" x="273.73" y="-15.4" font-family="sans-serif" font-size="14.00"> &#160;Module</text>
<polygon fill="#80b1d3" stroke="transparent" points="336,-10 336,-30 356,-30 356,-10 336,-10"/>
<text text-anchor="start" x="359.78" y="-15.4" font-family="sans-serif" font-size="14.00"> &#160;Bootstrap</text>
<polygon fill="#fdb462" stroke="transparent" points="433,-10 433,-30 453,-30 453,-10 433,-10"/>
<text text-anchor="start" x="456.67" y="-15.4" font-family="sans-serif" font-size="14.00"> &#160;Providers</text>
<polygon fill="#fb8072" stroke="transparent" points="529,-10 529,-30 549,-30 549,-10 529,-10"/>
<text text-anchor="start" x="552.73" y="-15.4" font-family="sans-serif" font-size="14.00"> &#160;Exports</text>
<g id="clust1" class="cluster">
<title>cluster_AppModule</title>
<polygon fill="none" stroke="black" stroke-dasharray="1,5" points="8,-146 8,-274 398,-274 398,-146 8,-146"/>
</g>
<g id="clust3" class="cluster">
<title>cluster_AppModule_imports</title>
<polygon fill="none" stroke="black" points="154,-154 154,-206 390,-206 390,-154 154,-154"/>
</g>
<g id="clust6" class="cluster">
<title>cluster_AppModule_providers</title>
<polygon fill="none" stroke="black" points="16,-154 16,-206 146,-206 146,-154 16,-154"/>
</g>
<g id="clust7" class="cluster">
<title>cluster_CompanyModule</title>
<polygon fill="none" stroke="black" stroke-dasharray="1,5" points="406,-214 406,-282 734,-282 734,-214 406,-214"/>
</g>
<g id="clust10" class="cluster">
<title>cluster_CompanyModule_exports</title>
<polygon fill="none" stroke="black" points="594,-222 594,-274 726,-274 726,-222 594,-222"/>
</g>
<g id="clust12" class="cluster">
<title>cluster_CompanyModule_providers</title>
<polygon fill="none" stroke="black" points="414,-222 414,-274 586,-274 586,-222 414,-222"/>
</g>
<g id="clust19" class="cluster">
<title>cluster_CronModule</title>
<polygon fill="none" stroke="black" stroke-dasharray="1,5" points="131,-70 131,-138 281,-138 281,-70 131,-70"/>
</g>
<g id="clust24" class="cluster">
<title>cluster_CronModule_providers</title>
<polygon fill="none" stroke="black" points="139,-78 139,-130 273,-130 273,-78 139,-78"/>
</g>
<!-- CompanyModule -->
<g id="node1" class="node">
<title>CompanyModule</title>
<polygon fill="#8dd3c7" stroke="black" points="381.99,-198 378.99,-202 357.99,-202 354.99,-198 268.01,-198 268.01,-162 381.99,-162 381.99,-198"/>
<text text-anchor="middle" x="325" y="-175.8" font-family="Times,serif" font-size="14.00">CompanyModule</text>
</g>
<!-- AppModule -->
<g id="node3" class="node">
<title>AppModule</title>
<polygon fill="#8dd3c7" stroke="black" points="247.66,-266 244.66,-270 223.66,-270 220.66,-266 164.34,-266 164.34,-230 247.66,-230 247.66,-266"/>
<text text-anchor="middle" x="206" y="-243.8" font-family="Times,serif" font-size="14.00">AppModule</text>
</g>
<!-- CompanyModule&#45;&gt;AppModule -->
<g id="edge1" class="edge">
<title>CompanyModule&#45;&gt;AppModule</title>
<path fill="none" stroke="black" d="M306,-198.29C306,-220.21 306,-254 306,-254 306,-254 257.83,-254 257.83,-254"/>
<polygon fill="black" stroke="black" points="257.83,-250.5 247.83,-254 257.83,-257.5 257.83,-250.5"/>
</g>
<!-- CompanyService  -->
<g id="node5" class="node">
<title>CompanyService </title>
<polygon fill="#fb8072" stroke="black" points="717.92,-266 602.08,-266 602.08,-230 717.92,-230 717.92,-266"/>
<text text-anchor="middle" x="660" y="-243.8" font-family="Times,serif" font-size="14.00">CompanyService </text>
</g>
<!-- CompanyModule&#45;&gt;CompanyService  -->
<g id="edge4" class="edge">
<title>CompanyModule&#45;&gt;CompanyService </title>
<path fill="none" stroke="black" stroke-dasharray="5,2" d="M382.21,-180C477.89,-180 660,-180 660,-180 660,-180 660,-219.78 660,-219.78"/>
<polygon fill="black" stroke="black" points="656.5,-219.78 660,-229.78 663.5,-219.78 656.5,-219.78"/>
</g>
<!-- CronModule -->
<g id="node2" class="node">
<title>CronModule</title>
<polygon fill="#8dd3c7" stroke="black" points="249.55,-198 246.55,-202 225.55,-202 222.55,-198 162.45,-198 162.45,-162 249.55,-162 249.55,-198"/>
<text text-anchor="middle" x="206" y="-175.8" font-family="Times,serif" font-size="14.00">CronModule</text>
</g>
<!-- CronModule&#45;&gt;AppModule -->
<g id="edge2" class="edge">
<title>CronModule&#45;&gt;AppModule</title>
<path fill="none" stroke="black" d="M206,-198.22C206,-198.22 206,-219.73 206,-219.73"/>
<polygon fill="black" stroke="black" points="202.5,-219.73 206,-229.73 209.5,-219.73 202.5,-219.73"/>
</g>
<!-- AppService -->
<g id="node4" class="node">
<title>AppService</title>
<ellipse fill="#fdb462" stroke="black" cx="81" cy="-180" rx="56.74" ry="18"/>
<text text-anchor="middle" x="81" y="-175.8" font-family="Times,serif" font-size="14.00">AppService</text>
</g>
<!-- AppService&#45;&gt;AppModule -->
<g id="edge3" class="edge">
<title>AppService&#45;&gt;AppModule</title>
<path fill="none" stroke="black" d="M81,-198.22C81,-218.37 81,-248 81,-248 81,-248 154.03,-248 154.03,-248"/>
<polygon fill="black" stroke="black" points="154.03,-251.5 164.03,-248 154.03,-244.5 154.03,-251.5"/>
</g>
<!-- CompanyService -->
<g id="node6" class="node">
<title>CompanyService</title>
<ellipse fill="#fdb462" stroke="black" cx="500" cy="-248" rx="77.59" ry="18"/>
<text text-anchor="middle" x="500" y="-243.8" font-family="Times,serif" font-size="14.00">CompanyService</text>
</g>
<!-- CompanyService&#45;&gt;CompanyModule -->
<g id="edge5" class="edge">
<title>CompanyService&#45;&gt;CompanyModule</title>
<path fill="none" stroke="black" d="M426.57,-242C386.11,-242 344,-242 344,-242 344,-242 344,-208.27 344,-208.27"/>
<polygon fill="black" stroke="black" points="347.5,-208.27 344,-198.27 340.5,-208.27 347.5,-208.27"/>
</g>
<!-- CronService -->
<g id="node7" class="node">
<title>CronService</title>
<ellipse fill="#fdb462" stroke="black" cx="206" cy="-104" rx="59.11" ry="18"/>
<text text-anchor="middle" x="206" y="-99.8" font-family="Times,serif" font-size="14.00">CronService</text>
</g>
<!-- CronService&#45;&gt;CronModule -->
<g id="edge6" class="edge">
<title>CronService&#45;&gt;CronModule</title>
<path fill="none" stroke="black" d="M206,-122.01C206,-122.01 206,-151.85 206,-151.85"/>
<polygon fill="black" stroke="black" points="202.5,-151.85 206,-161.85 209.5,-151.85 202.5,-151.85"/>
</g>
</g>
</svg>
