<?xml version="1.0" encoding="UTF-8" standalone="no"?>
<!DOCTYPE svg PUBLIC "-//W3C//DTD SVG 1.1//EN"
 "http://www.w3.org/Graphics/SVG/1.1/DTD/svg11.dtd">
<!-- Generated by graphviz version 2.44.1 (20200629.0846)
 -->
<!-- Title: dependencies Pages: 1 -->
<svg width="984pt" height="298pt"
 viewBox="0.00 0.00 984.00 298.00" xmlns="http://www.w3.org/2000/svg" xmlns:xlink="http://www.w3.org/1999/xlink">
<g id="graph0" class="graph" transform="scale(1 1) rotate(0) translate(4 294)">
<title>dependencies</title>
<polygon fill="white" stroke="transparent" points="-4,4 -4,-294 980,-294 980,4 -4,4"/>
<text text-anchor="start" x="467.01" y="-42.4" font-family="sans-serif" font-weight="bold" font-size="14.00">Legend</text>
<polygon fill="#ffffb3" stroke="transparent" points="254,-10 254,-30 274,-30 274,-10 254,-10"/>
<text text-anchor="start" x="277.63" y="-15.4" font-family="sans-serif" font-size="14.00"> &#160;Declarations</text>
<polygon fill="#8dd3c7" stroke="transparent" points="367,-10 367,-30 387,-30 387,-10 367,-10"/>
<text text-anchor="start" x="390.73" y="-15.4" font-family="sans-serif" font-size="14.00"> &#160;Module</text>
<polygon fill="#80b1d3" stroke="transparent" points="453,-10 453,-30 473,-30 473,-10 453,-10"/>
<text text-anchor="start" x="476.78" y="-15.4" font-family="sans-serif" font-size="14.00"> &#160;Bootstrap</text>
<polygon fill="#fdb462" stroke="transparent" points="550,-10 550,-30 570,-30 570,-10 550,-10"/>
<text text-anchor="start" x="573.67" y="-15.4" font-family="sans-serif" font-size="14.00"> &#160;Providers</text>
<polygon fill="#fb8072" stroke="transparent" points="646,-10 646,-30 666,-30 666,-10 646,-10"/>
<text text-anchor="start" x="669.73" y="-15.4" font-family="sans-serif" font-size="14.00"> &#160;Exports</text>
<g id="clust1" class="cluster">
<title>cluster_AppModule</title>
<polygon fill="none" stroke="black" stroke-dasharray="1,5" points="178,-146 178,-274 538,-274 538,-146 178,-146"/>
</g>
<g id="clust3" class="cluster">
<title>cluster_AppModule_imports</title>
<polygon fill="none" stroke="black" points="324,-154 324,-206 530,-206 530,-154 324,-154"/>
</g>
<g id="clust6" class="cluster">
<title>cluster_AppModule_providers</title>
<polygon fill="none" stroke="black" points="186,-154 186,-206 316,-206 316,-154 186,-154"/>
</g>
<g id="clust7" class="cluster">
<title>cluster_CatsModule</title>
<polygon fill="none" stroke="black" stroke-dasharray="1,5" points="301,-70 301,-138 447,-138 447,-70 301,-70"/>
</g>
<g id="clust12" class="cluster">
<title>cluster_CatsModule_providers</title>
<polygon fill="none" stroke="black" points="309,-78 309,-130 439,-130 439,-78 309,-78"/>
</g>
<g id="clust13" class="cluster">
<title>cluster_CronModule</title>
<polygon fill="none" stroke="black" stroke-dasharray="1,5" points="546,-214 546,-282 810,-282 810,-214 546,-214"/>
</g>
<g id="clust16" class="cluster">
<title>cluster_CronModule_exports</title>
<polygon fill="none" stroke="black" points="696,-222 696,-274 802,-274 802,-222 696,-222"/>
</g>
<g id="clust18" class="cluster">
<title>cluster_CronModule_providers</title>
<polygon fill="none" stroke="black" points="554,-222 554,-274 688,-274 688,-222 554,-222"/>
</g>
<g id="clust19" class="cluster">
<title>cluster_QueueModule</title>
<polygon fill="none" stroke="black" stroke-dasharray="1,5" points="8,-146 8,-274 170,-274 170,-146 8,-146"/>
</g>
<g id="clust24" class="cluster">
<title>cluster_QueueModule_providers</title>
<polygon fill="none" stroke="black" points="16,-154 16,-206 162,-206 162,-154 16,-154"/>
</g>
<g id="clust25" class="cluster">
<title>cluster_UtilsModule</title>
<polygon fill="none" stroke="black" stroke-dasharray="1,5" points="818,-70 818,-282 968,-282 968,-70 818,-70"/>
</g>
<g id="clust28" class="cluster">
<title>cluster_UtilsModule_exports</title>
<polygon fill="none" stroke="black" points="841,-222 841,-274 945,-274 945,-222 841,-222"/>
</g>
<g id="clust30" class="cluster">
<title>cluster_UtilsModule_providers</title>
<polygon fill="none" stroke="black" points="826,-78 826,-130 960,-130 960,-78 826,-78"/>
</g>
<!-- CatsModule -->
<g id="node1" class="node">
<title>CatsModule</title>
<polygon fill="#8dd3c7" stroke="black" points="416.44,-198 413.44,-202 392.44,-202 389.44,-198 331.56,-198 331.56,-162 416.44,-162 416.44,-198"/>
<text text-anchor="middle" x="374" y="-175.8" font-family="Times,serif" font-size="14.00">CatsModule</text>
</g>
<!-- AppModule -->
<g id="node3" class="node">
<title>AppModule</title>
<polygon fill="#8dd3c7" stroke="black" points="415.66,-266 412.66,-270 391.66,-270 388.66,-266 332.34,-266 332.34,-230 415.66,-230 415.66,-266"/>
<text text-anchor="middle" x="374" y="-243.8" font-family="Times,serif" font-size="14.00">AppModule</text>
</g>
<!-- CatsModule&#45;&gt;AppModule -->
<g id="edge1" class="edge">
<title>CatsModule&#45;&gt;AppModule</title>
<path fill="none" stroke="black" d="M374,-198.22C374,-198.22 374,-219.73 374,-219.73"/>
<polygon fill="black" stroke="black" points="370.5,-219.73 374,-229.73 377.5,-219.73 370.5,-219.73"/>
</g>
<!-- CronModule -->
<g id="node2" class="node">
<title>CronModule</title>
<polygon fill="#8dd3c7" stroke="black" points="521.55,-198 518.55,-202 497.55,-202 494.55,-198 434.45,-198 434.45,-162 521.55,-162 521.55,-198"/>
<text text-anchor="middle" x="478" y="-175.8" font-family="Times,serif" font-size="14.00">CronModule</text>
</g>
<!-- CronModule&#45;&gt;AppModule -->
<g id="edge2" class="edge">
<title>CronModule&#45;&gt;AppModule</title>
<path fill="none" stroke="black" d="M478,-198.29C478,-220.21 478,-254 478,-254 478,-254 425.7,-254 425.7,-254"/>
<polygon fill="black" stroke="black" points="425.7,-250.5 415.7,-254 425.7,-257.5 425.7,-250.5"/>
</g>
<!-- CronService  -->
<g id="node6" class="node">
<title>CronService </title>
<polygon fill="#fb8072" stroke="black" points="793.98,-266 704.02,-266 704.02,-230 793.98,-230 793.98,-266"/>
<text text-anchor="middle" x="749" y="-243.8" font-family="Times,serif" font-size="14.00">CronService </text>
</g>
<!-- CronModule&#45;&gt;CronService  -->
<g id="edge5" class="edge">
<title>CronModule&#45;&gt;CronService </title>
<path fill="none" stroke="black" stroke-dasharray="5,2" d="M521.84,-180C598.54,-180 749,-180 749,-180 749,-180 749,-219.78 749,-219.78"/>
<polygon fill="black" stroke="black" points="745.5,-219.78 749,-229.78 752.5,-219.78 745.5,-219.78"/>
</g>
<!-- QueueModule -->
<g id="node8" class="node">
<title>QueueModule</title>
<polygon fill="#8dd3c7" stroke="black" points="149.09,-266 146.09,-270 125.09,-270 122.09,-266 52.91,-266 52.91,-230 149.09,-230 149.09,-266"/>
<text text-anchor="middle" x="101" y="-243.8" font-family="Times,serif" font-size="14.00">QueueModule</text>
</g>
<!-- CronModule&#45;&gt;QueueModule -->
<g id="edge7" class="edge">
<title>CronModule&#45;&gt;QueueModule</title>
<path fill="none" stroke="black" d="M456.11,-198.19C456.11,-206.28 456.11,-214 456.11,-214 456.11,-214 117.01,-214 117.01,-214 117.01,-214 117.01,-219.81 117.01,-219.81"/>
<polygon fill="black" stroke="black" points="113.51,-219.81 117.01,-229.81 120.51,-219.81 113.51,-219.81"/>
</g>
<!-- AppService -->
<g id="node4" class="node">
<title>AppService</title>
<ellipse fill="#fdb462" stroke="black" cx="251" cy="-180" rx="56.74" ry="18"/>
<text text-anchor="middle" x="251" y="-175.8" font-family="Times,serif" font-size="14.00">AppService</text>
</g>
<!-- AppService&#45;&gt;AppModule -->
<g id="edge3" class="edge">
<title>AppService&#45;&gt;AppModule</title>
<path fill="none" stroke="black" d="M251,-198.22C251,-218.37 251,-248 251,-248 251,-248 322.01,-248 322.01,-248"/>
<polygon fill="black" stroke="black" points="322.01,-251.5 332.01,-248 322.01,-244.5 322.01,-251.5"/>
</g>
<!-- CatsService -->
<g id="node5" class="node">
<title>CatsService</title>
<ellipse fill="#fdb462" stroke="black" cx="374" cy="-104" rx="57.32" ry="18"/>
<text text-anchor="middle" x="374" y="-99.8" font-family="Times,serif" font-size="14.00">CatsService</text>
</g>
<!-- CatsService&#45;&gt;CatsModule -->
<g id="edge4" class="edge">
<title>CatsService&#45;&gt;CatsModule</title>
<path fill="none" stroke="black" d="M374,-122.01C374,-122.01 374,-151.85 374,-151.85"/>
<polygon fill="black" stroke="black" points="370.5,-151.85 374,-161.85 377.5,-151.85 370.5,-151.85"/>
</g>
<!-- CronService -->
<g id="node7" class="node">
<title>CronService</title>
<ellipse fill="#fdb462" stroke="black" cx="621" cy="-248" rx="59.11" ry="18"/>
<text text-anchor="middle" x="621" y="-243.8" font-family="Times,serif" font-size="14.00">CronService</text>
</g>
<!-- CronService&#45;&gt;CronModule -->
<g id="edge6" class="edge">
<title>CronService&#45;&gt;CronModule</title>
<path fill="none" stroke="black" d="M565.05,-242C533.32,-242 499.89,-242 499.89,-242 499.89,-242 499.89,-208.27 499.89,-208.27"/>
<polygon fill="black" stroke="black" points="503.39,-208.27 499.89,-198.27 496.39,-208.27 503.39,-208.27"/>
</g>
<!-- QueueService -->
<g id="node9" class="node">
<title>QueueService</title>
<ellipse fill="#fdb462" stroke="black" cx="89" cy="-180" rx="65.39" ry="18"/>
<text text-anchor="middle" x="89" y="-175.8" font-family="Times,serif" font-size="14.00">QueueService</text>
</g>
<!-- QueueService&#45;&gt;QueueModule -->
<g id="edge8" class="edge">
<title>QueueService&#45;&gt;QueueModule</title>
<path fill="none" stroke="black" d="M84.99,-198.22C84.99,-198.22 84.99,-219.73 84.99,-219.73"/>
<polygon fill="black" stroke="black" points="81.49,-219.73 84.99,-229.73 88.49,-219.73 81.49,-219.73"/>
</g>
<!-- UtilsService  -->
<g id="node10" class="node">
<title>UtilsService </title>
<polygon fill="#fb8072" stroke="black" points="937.2,-266 848.8,-266 848.8,-230 937.2,-230 937.2,-266"/>
<text text-anchor="middle" x="893" y="-243.8" font-family="Times,serif" font-size="14.00">UtilsService </text>
</g>
<!-- UtilsModule -->
<g id="node11" class="node">
<title>UtilsModule</title>
<polygon fill="#8dd3c7" stroke="black" points="936.27,-198 933.27,-202 912.27,-202 909.27,-198 849.73,-198 849.73,-162 936.27,-162 936.27,-198"/>
<text text-anchor="middle" x="893" y="-175.8" font-family="Times,serif" font-size="14.00">UtilsModule</text>
</g>
<!-- UtilsModule&#45;&gt;UtilsService  -->
<g id="edge9" class="edge">
<title>UtilsModule&#45;&gt;UtilsService </title>
<path fill="none" stroke="black" stroke-dasharray="5,2" d="M893,-198.22C893,-198.22 893,-219.73 893,-219.73"/>
<polygon fill="black" stroke="black" points="889.5,-219.73 893,-229.73 896.5,-219.73 889.5,-219.73"/>
</g>
<!-- UtilsService -->
<g id="node12" class="node">
<title>UtilsService</title>
<ellipse fill="#fdb462" stroke="black" cx="893" cy="-104" rx="58.54" ry="18"/>
<text text-anchor="middle" x="893" y="-99.8" font-family="Times,serif" font-size="14.00">UtilsService</text>
</g>
<!-- UtilsService&#45;&gt;UtilsModule -->
<g id="edge10" class="edge">
<title>UtilsService&#45;&gt;UtilsModule</title>
<path fill="none" stroke="black" d="M893,-122.01C893,-122.01 893,-151.85 893,-151.85"/>
<polygon fill="black" stroke="black" points="889.5,-151.85 893,-161.85 896.5,-151.85 889.5,-151.85"/>
</g>
</g>
</svg>
