<?xml version="1.0" encoding="UTF-8" standalone="no"?>
<!DOCTYPE svg PUBLIC "-//W3C//DTD SVG 1.1//EN"
 "http://www.w3.org/Graphics/SVG/1.1/DTD/svg11.dtd">
<!-- Generated by graphviz version 2.44.1 (20200629.0846)
 -->
<!-- Title: dependencies Pages: 1 -->
<svg width="1711pt" height="431pt"
 viewBox="0.00 0.00 1711.00 431.00" xmlns="http://www.w3.org/2000/svg" xmlns:xlink="http://www.w3.org/1999/xlink">
<g id="graph0" class="graph" transform="scale(1 1) rotate(0) translate(4 427)">
<title>dependencies</title>
<polygon fill="white" stroke="transparent" points="-4,4 -4,-427 1707,-427 1707,4 -4,4"/>
<text text-anchor="start" x="830.51" y="-42.4" font-family="sans-serif" font-weight="bold" font-size="14.00">Legend</text>
<polygon fill="#ffffb3" stroke="transparent" points="617.5,-10 617.5,-30 637.5,-30 637.5,-10 617.5,-10"/>
<text text-anchor="start" x="641.13" y="-15.4" font-family="sans-serif" font-size="14.00"> &#160;Declarations</text>
<polygon fill="#8dd3c7" stroke="transparent" points="730.5,-10 730.5,-30 750.5,-30 750.5,-10 730.5,-10"/>
<text text-anchor="start" x="754.23" y="-15.4" font-family="sans-serif" font-size="14.00"> &#160;Module</text>
<polygon fill="#80b1d3" stroke="transparent" points="816.5,-10 816.5,-30 836.5,-30 836.5,-10 816.5,-10"/>
<text text-anchor="start" x="840.28" y="-15.4" font-family="sans-serif" font-size="14.00"> &#160;Bootstrap</text>
<polygon fill="#fdb462" stroke="transparent" points="913.5,-10 913.5,-30 933.5,-30 933.5,-10 913.5,-10"/>
<text text-anchor="start" x="937.17" y="-15.4" font-family="sans-serif" font-size="14.00"> &#160;Providers</text>
<polygon fill="#fb8072" stroke="transparent" points="1009.5,-10 1009.5,-30 1029.5,-30 1029.5,-10 1009.5,-10"/>
<text text-anchor="start" x="1033.23" y="-15.4" font-family="sans-serif" font-size="14.00"> &#160;Exports</text>
<g id="clust1" class="cluster">
<title>cluster_AppModule</title>
<polygon fill="none" stroke="black" stroke-dasharray="1,5" points="612,-214 612,-415 1143,-415 1143,-214 612,-214"/>
</g>
<g id="clust3" class="cluster">
<title>cluster_AppModule_imports</title>
<polygon fill="none" stroke="black" points="620,-222 620,-350 1135,-350 1135,-222 620,-222"/>
</g>
<g id="clust7" class="cluster">
<title>cluster_AuthModule</title>
<polygon fill="none" stroke="black" stroke-dasharray="1,5" points="174,-214 174,-282 604,-282 604,-214 174,-214"/>
</g>
<g id="clust12" class="cluster">
<title>cluster_AuthModule_providers</title>
<polygon fill="none" stroke="black" points="182,-222 182,-274 596,-274 596,-222 182,-222"/>
</g>
<g id="clust13" class="cluster">
<title>cluster_CronModule</title>
<polygon fill="none" stroke="black" stroke-dasharray="1,5" points="1088,-70 1088,-198 1444,-198 1444,-70 1088,-70"/>
</g>
<g id="clust18" class="cluster">
<title>cluster_CronModule_providers</title>
<polygon fill="none" stroke="black" points="1096,-78 1096,-130 1436,-130 1436,-78 1096,-78"/>
</g>
<g id="clust25" class="cluster">
<title>cluster_EmailModule</title>
<polygon fill="none" stroke="black" stroke-dasharray="1,5" points="8,-70 8,-282 166,-282 166,-70 8,-70"/>
</g>
<g id="clust28" class="cluster">
<title>cluster_EmailModule_exports</title>
<polygon fill="none" stroke="black" points="40,-222 40,-274 150,-274 150,-222 40,-222"/>
</g>
<g id="clust30" class="cluster">
<title>cluster_EmailModule_providers</title>
<polygon fill="none" stroke="black" points="16,-78 16,-130 158,-130 158,-78 16,-78"/>
</g>
<g id="clust31" class="cluster">
<title>cluster_EmailSchedulingModule</title>
<polygon fill="none" stroke="black" stroke-dasharray="1,5" points="583,-138 583,-206 829,-206 829,-138 583,-138"/>
</g>
<g id="clust36" class="cluster">
<title>cluster_EmailSchedulingModule_providers</title>
<polygon fill="none" stroke="black" points="591,-146 591,-198 821,-198 821,-146 591,-146"/>
</g>
<g id="clust37" class="cluster">
<title>cluster_TagsModule</title>
<polygon fill="none" stroke="black" stroke-dasharray="1,5" points="1151,-290 1151,-358 1413,-358 1413,-290 1151,-290"/>
</g>
<g id="clust40" class="cluster">
<title>cluster_TagsModule_exports</title>
<polygon fill="none" stroke="black" points="1301,-298 1301,-350 1405,-350 1405,-298 1301,-298"/>
</g>
<g id="clust42" class="cluster">
<title>cluster_TagsModule_providers</title>
<polygon fill="none" stroke="black" points="1159,-298 1159,-350 1293,-350 1293,-298 1159,-298"/>
</g>
<g id="clust43" class="cluster">
<title>cluster_UsersModule</title>
<polygon fill="none" stroke="black" stroke-dasharray="1,5" points="1421,-290 1421,-358 1695,-358 1695,-290 1421,-290"/>
</g>
<g id="clust46" class="cluster">
<title>cluster_UsersModule_exports</title>
<polygon fill="none" stroke="black" points="1577,-298 1577,-350 1687,-350 1687,-298 1577,-298"/>
</g>
<g id="clust48" class="cluster">
<title>cluster_UsersModule_providers</title>
<polygon fill="none" stroke="black" points="1429,-298 1429,-350 1569,-350 1569,-298 1429,-298"/>
</g>
<!-- AuthModule -->
<g id="node1" class="node">
<title>AuthModule</title>
<polygon fill="#8dd3c7" stroke="black" points="715.55,-342 712.55,-346 691.55,-346 688.55,-342 628.45,-342 628.45,-306 715.55,-306 715.55,-342"/>
<text text-anchor="middle" x="672" y="-319.8" font-family="Times,serif" font-size="14.00">AuthModule</text>
</g>
<!-- AppModule -->
<g id="node6" class="node">
<title>AppModule</title>
<polygon fill="#8dd3c7" stroke="black" points="898.66,-407 895.66,-411 874.66,-411 871.66,-407 815.34,-407 815.34,-371 898.66,-371 898.66,-407"/>
<text text-anchor="middle" x="857" y="-384.8" font-family="Times,serif" font-size="14.00">AppModule</text>
</g>
<!-- AuthModule&#45;&gt;AppModule -->
<g id="edge1" class="edge">
<title>AuthModule&#45;&gt;AppModule</title>
<path fill="none" stroke="black" d="M715.61,-333C766.29,-333 843.06,-333 843.06,-333 843.06,-333 843.06,-360.97 843.06,-360.97"/>
<polygon fill="black" stroke="black" points="839.56,-360.97 843.06,-370.97 846.56,-360.97 839.56,-360.97"/>
</g>
<!-- DatabaseModule -->
<g id="node2" class="node">
<title>DatabaseModule</title>
<polygon fill="#8dd3c7" stroke="black" points="912.35,-266 909.35,-270 888.35,-270 885.35,-266 801.65,-266 801.65,-230 912.35,-230 912.35,-266"/>
<text text-anchor="middle" x="857" y="-243.8" font-family="Times,serif" font-size="14.00">DatabaseModule</text>
</g>
<!-- DatabaseModule&#45;&gt;AppModule -->
<g id="edge2" class="edge">
<title>DatabaseModule&#45;&gt;AppModule</title>
<path fill="none" stroke="black" d="M870.94,-266.14C870.94,-266.14 870.94,-360.93 870.94,-360.93"/>
<polygon fill="black" stroke="black" points="867.44,-360.92 870.94,-370.93 874.44,-360.93 867.44,-360.92"/>
</g>
<!-- EmailSchedulingModule -->
<g id="node3" class="node">
<title>EmailSchedulingModule</title>
<polygon fill="#8dd3c7" stroke="black" points="783.98,-266 780.98,-270 759.98,-270 756.98,-266 628.02,-266 628.02,-230 783.98,-230 783.98,-266"/>
<text text-anchor="middle" x="706" y="-243.8" font-family="Times,serif" font-size="14.00">EmailSchedulingModule</text>
</g>
<!-- EmailSchedulingModule&#45;&gt;AppModule -->
<g id="edge3" class="edge">
<title>EmailSchedulingModule&#45;&gt;AppModule</title>
<path fill="none" stroke="black" d="M749.88,-266.14C749.88,-304.23 749.88,-389 749.88,-389 749.88,-389 805.28,-389 805.28,-389"/>
<polygon fill="black" stroke="black" points="805.28,-392.5 815.28,-389 805.28,-385.5 805.28,-392.5"/>
</g>
<!-- TagsModule -->
<g id="node4" class="node">
<title>TagsModule</title>
<polygon fill="#8dd3c7" stroke="black" points="1017.26,-266 1014.26,-270 993.26,-270 990.26,-266 930.74,-266 930.74,-230 1017.26,-230 1017.26,-266"/>
<text text-anchor="middle" x="974" y="-243.8" font-family="Times,serif" font-size="14.00">TagsModule</text>
</g>
<!-- TagsModule&#45;&gt;AppModule -->
<g id="edge4" class="edge">
<title>TagsModule&#45;&gt;AppModule</title>
<path fill="none" stroke="black" d="M974,-266.21C974,-303.06 974,-383 974,-383 974,-383 908.91,-383 908.91,-383"/>
<polygon fill="black" stroke="black" points="908.91,-379.5 898.91,-383 908.91,-386.5 908.91,-379.5"/>
</g>
<!-- TagsService  -->
<g id="node17" class="node">
<title>TagsService </title>
<polygon fill="#fb8072" stroke="black" points="1397.19,-342 1308.81,-342 1308.81,-306 1397.19,-306 1397.19,-342"/>
<text text-anchor="middle" x="1353" y="-319.8" font-family="Times,serif" font-size="14.00">TagsService </text>
</g>
<!-- TagsModule&#45;&gt;TagsService  -->
<g id="edge16" class="edge">
<title>TagsModule&#45;&gt;TagsService </title>
<path fill="none" stroke="black" stroke-dasharray="5,2" d="M952.31,-266.11C952.31,-275.9 952.31,-286 952.31,-286 952.31,-286 1353,-286 1353,-286 1353,-286 1353,-295.89 1353,-295.89"/>
<polygon fill="black" stroke="black" points="1349.5,-295.89 1353,-305.89 1356.5,-295.89 1349.5,-295.89"/>
</g>
<!-- UsersModule -->
<g id="node5" class="node">
<title>UsersModule</title>
<polygon fill="#8dd3c7" stroke="black" points="1126.92,-266 1123.92,-270 1102.92,-270 1099.92,-266 1035.08,-266 1035.08,-230 1126.92,-230 1126.92,-266"/>
<text text-anchor="middle" x="1081" y="-243.8" font-family="Times,serif" font-size="14.00">UsersModule</text>
</g>
<!-- UsersModule&#45;&gt;AuthModule -->
<g id="edge6" class="edge">
<title>UsersModule&#45;&gt;AuthModule</title>
<path fill="none" stroke="black" d="M1065.76,-266.31C1065.76,-286.15 1065.76,-315 1065.76,-315 1065.76,-315 725.64,-315 725.64,-315"/>
<polygon fill="black" stroke="black" points="725.64,-311.5 715.64,-315 725.64,-318.5 725.64,-311.5"/>
</g>
<!-- UsersModule&#45;&gt;AppModule -->
<g id="edge5" class="edge">
<title>UsersModule&#45;&gt;AppModule</title>
<path fill="none" stroke="black" d="M1096.24,-266.03C1096.24,-305.28 1096.24,-395 1096.24,-395 1096.24,-395 908.67,-395 908.67,-395"/>
<polygon fill="black" stroke="black" points="908.67,-391.5 898.67,-395 908.67,-398.5 908.67,-391.5"/>
</g>
<!-- UsersService  -->
<g id="node19" class="node">
<title>UsersService </title>
<polygon fill="#fb8072" stroke="black" points="1678.85,-342 1585.15,-342 1585.15,-306 1678.85,-306 1678.85,-342"/>
<text text-anchor="middle" x="1632" y="-319.8" font-family="Times,serif" font-size="14.00">UsersService </text>
</g>
<!-- UsersModule&#45;&gt;UsersService  -->
<g id="edge18" class="edge">
<title>UsersModule&#45;&gt;UsersService </title>
<path fill="none" stroke="black" stroke-dasharray="5,2" d="M1127.03,-242C1259.46,-242 1632,-242 1632,-242 1632,-242 1632,-295.8 1632,-295.8"/>
<polygon fill="black" stroke="black" points="1628.5,-295.8 1632,-305.8 1635.5,-295.8 1628.5,-295.8"/>
</g>
<!-- AuthService -->
<g id="node7" class="node">
<title>AuthService</title>
<ellipse fill="#fdb462" stroke="black" cx="529" cy="-248" rx="59.11" ry="18"/>
<text text-anchor="middle" x="529" y="-243.8" font-family="Times,serif" font-size="14.00">AuthService</text>
</g>
<!-- AuthService&#45;&gt;AuthModule -->
<g id="edge7" class="edge">
<title>AuthService&#45;&gt;AuthModule</title>
<path fill="none" stroke="black" d="M529,-266.31C529,-286.15 529,-315 529,-315 529,-315 618.32,-315 618.32,-315"/>
<polygon fill="black" stroke="black" points="618.32,-318.5 628.32,-315 618.32,-311.5 618.32,-318.5"/>
</g>
<!-- JwtStrategy -->
<g id="node8" class="node">
<title>JwtStrategy</title>
<ellipse fill="#fdb462" stroke="black" cx="395" cy="-248" rx="56.76" ry="18"/>
<text text-anchor="middle" x="395" y="-243.8" font-family="Times,serif" font-size="14.00">JwtStrategy</text>
</g>
<!-- JwtStrategy&#45;&gt;AuthModule -->
<g id="edge8" class="edge">
<title>JwtStrategy&#45;&gt;AuthModule</title>
<path fill="none" stroke="black" d="M395,-266.01C395,-288.49 395,-324 395,-324 395,-324 618.41,-324 618.41,-324"/>
<polygon fill="black" stroke="black" points="618.41,-327.5 628.41,-324 618.41,-320.5 618.41,-327.5"/>
</g>
<!-- LocalStrategy -->
<g id="node9" class="node">
<title>LocalStrategy</title>
<ellipse fill="#fdb462" stroke="black" cx="255" cy="-248" rx="65.41" ry="18"/>
<text text-anchor="middle" x="255" y="-243.8" font-family="Times,serif" font-size="14.00">LocalStrategy</text>
</g>
<!-- LocalStrategy&#45;&gt;AuthModule -->
<g id="edge9" class="edge">
<title>LocalStrategy&#45;&gt;AuthModule</title>
<path fill="none" stroke="black" d="M255,-266.03C255,-290.98 255,-333 255,-333 255,-333 618.16,-333 618.16,-333"/>
<polygon fill="black" stroke="black" points="618.16,-336.5 628.16,-333 618.16,-329.5 618.16,-336.5"/>
</g>
<!-- CronService -->
<g id="node10" class="node">
<title>CronService</title>
<ellipse fill="#fdb462" stroke="black" cx="1163" cy="-104" rx="59.11" ry="18"/>
<text text-anchor="middle" x="1163" y="-99.8" font-family="Times,serif" font-size="14.00">CronService</text>
</g>
<!-- CronModule -->
<g id="node12" class="node">
<title>CronModule</title>
<polygon fill="#8dd3c7" stroke="black" points="1291.55,-190 1288.55,-194 1267.55,-194 1264.55,-190 1204.45,-190 1204.45,-154 1291.55,-154 1291.55,-190"/>
<text text-anchor="middle" x="1248" y="-167.8" font-family="Times,serif" font-size="14.00">CronModule</text>
</g>
<!-- CronService&#45;&gt;CronModule -->
<g id="edge10" class="edge">
<title>CronService&#45;&gt;CronModule</title>
<path fill="none" stroke="black" d="M1213.27,-113.74C1213.27,-113.74 1213.27,-143.84 1213.27,-143.84"/>
<polygon fill="black" stroke="black" points="1209.77,-143.84 1213.27,-153.84 1216.77,-143.84 1209.77,-143.84"/>
</g>
<!-- PersistedCronService -->
<g id="node11" class="node">
<title>PersistedCronService</title>
<ellipse fill="#fdb462" stroke="black" cx="1334" cy="-104" rx="94.33" ry="18"/>
<text text-anchor="middle" x="1334" y="-99.8" font-family="Times,serif" font-size="14.00">PersistedCronService</text>
</g>
<!-- PersistedCronService&#45;&gt;CronModule -->
<g id="edge11" class="edge">
<title>PersistedCronService&#45;&gt;CronModule</title>
<path fill="none" stroke="black" d="M1265.8,-116.47C1265.8,-116.47 1265.8,-143.97 1265.8,-143.97"/>
<polygon fill="black" stroke="black" points="1262.3,-143.97 1265.8,-153.97 1269.3,-143.97 1262.3,-143.97"/>
</g>
<!-- EmailService  -->
<g id="node13" class="node">
<title>EmailService </title>
<polygon fill="#fb8072" stroke="black" points="142.42,-266 47.58,-266 47.58,-230 142.42,-230 142.42,-266"/>
<text text-anchor="middle" x="95" y="-243.8" font-family="Times,serif" font-size="14.00">EmailService </text>
</g>
<!-- EmailModule -->
<g id="node14" class="node">
<title>EmailModule</title>
<polygon fill="#8dd3c7" stroke="black" points="141.49,-190 138.49,-194 117.49,-194 114.49,-190 48.51,-190 48.51,-154 141.49,-154 141.49,-190"/>
<text text-anchor="middle" x="95" y="-167.8" font-family="Times,serif" font-size="14.00">EmailModule</text>
</g>
<!-- EmailModule&#45;&gt;EmailSchedulingModule -->
<g id="edge14" class="edge">
<title>EmailModule&#45;&gt;EmailSchedulingModule</title>
<path fill="none" stroke="black" d="M141.94,-172C266.13,-172 593.9,-172 593.9,-172 593.9,-172 593.9,-248 593.9,-248 593.9,-248 617.84,-248 617.84,-248"/>
<polygon fill="black" stroke="black" points="617.84,-251.5 627.84,-248 617.84,-244.5 617.84,-251.5"/>
</g>
<!-- EmailModule&#45;&gt;EmailService  -->
<g id="edge12" class="edge">
<title>EmailModule&#45;&gt;EmailService </title>
<path fill="none" stroke="black" stroke-dasharray="5,2" d="M95,-190.01C95,-190.01 95,-219.85 95,-219.85"/>
<polygon fill="black" stroke="black" points="91.5,-219.85 95,-229.85 98.5,-219.85 91.5,-219.85"/>
</g>
<!-- EmailService -->
<g id="node15" class="node">
<title>EmailService</title>
<ellipse fill="#fdb462" stroke="black" cx="87" cy="-104" rx="63.12" ry="18"/>
<text text-anchor="middle" x="87" y="-99.8" font-family="Times,serif" font-size="14.00">EmailService</text>
</g>
<!-- EmailService&#45;&gt;EmailModule -->
<g id="edge13" class="edge">
<title>EmailService&#45;&gt;EmailModule</title>
<path fill="none" stroke="black" d="M95,-121.87C95,-121.87 95,-143.54 95,-143.54"/>
<polygon fill="black" stroke="black" points="91.5,-143.54 95,-153.54 98.5,-143.54 91.5,-143.54"/>
</g>
<!-- EmailSchedulingService -->
<g id="node16" class="node">
<title>EmailSchedulingService</title>
<ellipse fill="#fdb462" stroke="black" cx="706" cy="-172" rx="106.52" ry="18"/>
<text text-anchor="middle" x="706" y="-167.8" font-family="Times,serif" font-size="14.00">EmailSchedulingService</text>
</g>
<!-- EmailSchedulingService&#45;&gt;EmailSchedulingModule -->
<g id="edge15" class="edge">
<title>EmailSchedulingService&#45;&gt;EmailSchedulingModule</title>
<path fill="none" stroke="black" d="M706,-190.01C706,-190.01 706,-219.85 706,-219.85"/>
<polygon fill="black" stroke="black" points="702.5,-219.85 706,-229.85 709.5,-219.85 702.5,-219.85"/>
</g>
<!-- TagsService -->
<g id="node18" class="node">
<title>TagsService</title>
<ellipse fill="#fdb462" stroke="black" cx="1226" cy="-324" rx="58.53" ry="18"/>
<text text-anchor="middle" x="1226" y="-319.8" font-family="Times,serif" font-size="14.00">TagsService</text>
</g>
<!-- TagsService&#45;&gt;TagsModule -->
<g id="edge17" class="edge">
<title>TagsService&#45;&gt;TagsModule</title>
<path fill="none" stroke="black" d="M1166.99,-324C1098.75,-324 995.69,-324 995.69,-324 995.69,-324 995.69,-276.01 995.69,-276.01"/>
<polygon fill="black" stroke="black" points="999.19,-276.01 995.69,-266.01 992.19,-276.01 999.19,-276.01"/>
</g>
<!-- UsersService -->
<g id="node20" class="node">
<title>UsersService</title>
<ellipse fill="#fdb462" stroke="black" cx="1499" cy="-324" rx="61.95" ry="18"/>
<text text-anchor="middle" x="1499" y="-319.8" font-family="Times,serif" font-size="14.00">UsersService</text>
</g>
<!-- UsersService&#45;&gt;UsersModule -->
<g id="edge19" class="edge">
<title>UsersService&#45;&gt;UsersModule</title>
<path fill="none" stroke="black" d="M1499,-305.97C1499,-285.23 1499,-254 1499,-254 1499,-254 1136.93,-254 1136.93,-254"/>
<polygon fill="black" stroke="black" points="1136.93,-250.5 1126.93,-254 1136.93,-257.5 1136.93,-250.5"/>
</g>
</g>
</svg>
