<?xml version="1.0" encoding="UTF-8" standalone="no"?>
<!DOCTYPE svg PUBLIC "-//W3C//DTD SVG 1.1//EN"
 "http://www.w3.org/Graphics/SVG/1.1/DTD/svg11.dtd">
<!-- Generated by graphviz version 2.44.1 (20200629.0846)
 -->
<!-- Title: dependencies Pages: 1 -->
<svg width="1038pt" height="298pt"
 viewBox="0.00 0.00 1038.00 298.00" xmlns="http://www.w3.org/2000/svg" xmlns:xlink="http://www.w3.org/1999/xlink">
<g id="graph0" class="graph" transform="scale(1 1) rotate(0) translate(4 294)">
<title>dependencies</title>
<polygon fill="white" stroke="transparent" points="-4,4 -4,-294 1034,-294 1034,4 -4,4"/>
<text text-anchor="start" x="494.01" y="-42.4" font-family="sans-serif" font-weight="bold" font-size="14.00">Legend</text>
<polygon fill="#ffffb3" stroke="transparent" points="281,-10 281,-30 301,-30 301,-10 281,-10"/>
<text text-anchor="start" x="304.63" y="-15.4" font-family="sans-serif" font-size="14.00"> &#160;Declarations</text>
<polygon fill="#8dd3c7" stroke="transparent" points="394,-10 394,-30 414,-30 414,-10 394,-10"/>
<text text-anchor="start" x="417.73" y="-15.4" font-family="sans-serif" font-size="14.00"> &#160;Module</text>
<polygon fill="#80b1d3" stroke="transparent" points="480,-10 480,-30 500,-30 500,-10 480,-10"/>
<text text-anchor="start" x="503.78" y="-15.4" font-family="sans-serif" font-size="14.00"> &#160;Bootstrap</text>
<polygon fill="#fdb462" stroke="transparent" points="577,-10 577,-30 597,-30 597,-10 577,-10"/>
<text text-anchor="start" x="600.67" y="-15.4" font-family="sans-serif" font-size="14.00"> &#160;Providers</text>
<polygon fill="#fb8072" stroke="transparent" points="673,-10 673,-30 693,-30 693,-10 673,-10"/>
<text text-anchor="start" x="696.73" y="-15.4" font-family="sans-serif" font-size="14.00"> &#160;Exports</text>
<g id="clust1" class="cluster">
<title>cluster_AppModule</title>
<polygon fill="none" stroke="black" stroke-dasharray="1,5" points="8,-146 8,-274 470,-274 470,-146 8,-146"/>
</g>
<g id="clust3" class="cluster">
<title>cluster_AppModule_imports</title>
<polygon fill="none" stroke="black" points="16,-154 16,-206 462,-206 462,-154 16,-154"/>
</g>
<g id="clust7" class="cluster">
<title>cluster_CronModule</title>
<polygon fill="none" stroke="black" stroke-dasharray="1,5" points="121,-70 121,-138 271,-138 271,-70 121,-70"/>
</g>
<g id="clust12" class="cluster">
<title>cluster_CronModule_providers</title>
<polygon fill="none" stroke="black" points="129,-78 129,-130 263,-130 263,-78 129,-78"/>
</g>
<g id="clust19" class="cluster">
<title>cluster_TagsModule</title>
<polygon fill="none" stroke="black" stroke-dasharray="1,5" points="478,-214 478,-282 740,-282 740,-214 478,-214"/>
</g>
<g id="clust22" class="cluster">
<title>cluster_TagsModule_exports</title>
<polygon fill="none" stroke="black" points="628,-222 628,-274 732,-274 732,-222 628,-222"/>
</g>
<g id="clust24" class="cluster">
<title>cluster_TagsModule_providers</title>
<polygon fill="none" stroke="black" points="486,-222 486,-274 620,-274 620,-222 486,-222"/>
</g>
<g id="clust25" class="cluster">
<title>cluster_UsersModule</title>
<polygon fill="none" stroke="black" stroke-dasharray="1,5" points="748,-214 748,-282 1022,-282 1022,-214 748,-214"/>
</g>
<g id="clust28" class="cluster">
<title>cluster_UsersModule_exports</title>
<polygon fill="none" stroke="black" points="904,-222 904,-274 1014,-274 1014,-222 904,-222"/>
</g>
<g id="clust30" class="cluster">
<title>cluster_UsersModule_providers</title>
<polygon fill="none" stroke="black" points="756,-222 756,-274 896,-274 896,-222 756,-222"/>
</g>
<!-- CronModule -->
<g id="node1" class="node">
<title>CronModule</title>
<polygon fill="#8dd3c7" stroke="black" points="239.55,-198 236.55,-202 215.55,-202 212.55,-198 152.45,-198 152.45,-162 239.55,-162 239.55,-198"/>
<text text-anchor="middle" x="196" y="-175.8" font-family="Times,serif" font-size="14.00">CronModule</text>
</g>
<!-- AppModule -->
<g id="node5" class="node">
<title>AppModule</title>
<polygon fill="#8dd3c7" stroke="black" points="289.66,-266 286.66,-270 265.66,-270 262.66,-266 206.34,-266 206.34,-230 289.66,-230 289.66,-266"/>
<text text-anchor="middle" x="248" y="-243.8" font-family="Times,serif" font-size="14.00">AppModule</text>
</g>
<!-- CronModule&#45;&gt;AppModule -->
<g id="edge1" class="edge">
<title>CronModule&#45;&gt;AppModule</title>
<path fill="none" stroke="black" d="M222.97,-198.22C222.97,-198.22 222.97,-219.73 222.97,-219.73"/>
<polygon fill="black" stroke="black" points="219.47,-219.73 222.97,-229.73 226.47,-219.73 219.47,-219.73"/>
</g>
<!-- DatabaseModule -->
<g id="node2" class="node">
<title>DatabaseModule</title>
<polygon fill="#8dd3c7" stroke="black" points="134.35,-198 131.35,-202 110.35,-202 107.35,-198 23.65,-198 23.65,-162 134.35,-162 134.35,-198"/>
<text text-anchor="middle" x="79" y="-175.8" font-family="Times,serif" font-size="14.00">DatabaseModule</text>
</g>
<!-- DatabaseModule&#45;&gt;AppModule -->
<g id="edge2" class="edge">
<title>DatabaseModule&#45;&gt;AppModule</title>
<path fill="none" stroke="black" d="M79,-198.22C79,-218.37 79,-248 79,-248 79,-248 196.22,-248 196.22,-248"/>
<polygon fill="black" stroke="black" points="196.22,-251.5 206.22,-248 196.22,-244.5 196.22,-251.5"/>
</g>
<!-- TagsModule -->
<g id="node3" class="node">
<title>TagsModule</title>
<polygon fill="#8dd3c7" stroke="black" points="344.26,-198 341.26,-202 320.26,-202 317.26,-198 257.74,-198 257.74,-162 344.26,-162 344.26,-198"/>
<text text-anchor="middle" x="301" y="-175.8" font-family="Times,serif" font-size="14.00">TagsModule</text>
</g>
<!-- TagsModule&#45;&gt;AppModule -->
<g id="edge3" class="edge">
<title>TagsModule&#45;&gt;AppModule</title>
<path fill="none" stroke="black" d="M273.72,-198.22C273.72,-198.22 273.72,-219.73 273.72,-219.73"/>
<polygon fill="black" stroke="black" points="270.22,-219.73 273.72,-229.73 277.22,-219.73 270.22,-219.73"/>
</g>
<!-- TagsService  -->
<g id="node7" class="node">
<title>TagsService </title>
<polygon fill="#fb8072" stroke="black" points="724.19,-266 635.81,-266 635.81,-230 724.19,-230 724.19,-266"/>
<text text-anchor="middle" x="680" y="-243.8" font-family="Times,serif" font-size="14.00">TagsService </text>
</g>
<!-- TagsModule&#45;&gt;TagsService  -->
<g id="edge6" class="edge">
<title>TagsModule&#45;&gt;TagsService </title>
<path fill="none" stroke="black" stroke-dasharray="5,2" d="M308.01,-198.19C308.01,-206.28 308.01,-214 308.01,-214 308.01,-214 680,-214 680,-214 680,-214 680,-219.81 680,-219.81"/>
<polygon fill="black" stroke="black" points="676.5,-219.81 680,-229.81 683.5,-219.81 676.5,-219.81"/>
</g>
<!-- UsersModule -->
<g id="node4" class="node">
<title>UsersModule</title>
<polygon fill="#8dd3c7" stroke="black" points="453.92,-198 450.92,-202 429.92,-202 426.92,-198 362.08,-198 362.08,-162 453.92,-162 453.92,-198"/>
<text text-anchor="middle" x="408" y="-175.8" font-family="Times,serif" font-size="14.00">UsersModule</text>
</g>
<!-- UsersModule&#45;&gt;AppModule -->
<g id="edge4" class="edge">
<title>UsersModule&#45;&gt;AppModule</title>
<path fill="none" stroke="black" d="M408,-198.27C408,-216.56 408,-242 408,-242 408,-242 300.04,-242 300.04,-242"/>
<polygon fill="black" stroke="black" points="300.04,-238.5 290.04,-242 300.04,-245.5 300.04,-238.5"/>
</g>
<!-- UsersService  -->
<g id="node9" class="node">
<title>UsersService </title>
<polygon fill="#fb8072" stroke="black" points="1005.85,-266 912.15,-266 912.15,-230 1005.85,-230 1005.85,-266"/>
<text text-anchor="middle" x="959" y="-243.8" font-family="Times,serif" font-size="14.00">UsersService </text>
</g>
<!-- UsersModule&#45;&gt;UsersService  -->
<g id="edge8" class="edge">
<title>UsersModule&#45;&gt;UsersService </title>
<path fill="none" stroke="black" stroke-dasharray="5,2" d="M454.03,-174C586.46,-174 959,-174 959,-174 959,-174 959,-219.71 959,-219.71"/>
<polygon fill="black" stroke="black" points="955.5,-219.71 959,-229.71 962.5,-219.71 955.5,-219.71"/>
</g>
<!-- CronService -->
<g id="node6" class="node">
<title>CronService</title>
<ellipse fill="#fdb462" stroke="black" cx="196" cy="-104" rx="59.11" ry="18"/>
<text text-anchor="middle" x="196" y="-99.8" font-family="Times,serif" font-size="14.00">CronService</text>
</g>
<!-- CronService&#45;&gt;CronModule -->
<g id="edge5" class="edge">
<title>CronService&#45;&gt;CronModule</title>
<path fill="none" stroke="black" d="M196,-122.01C196,-122.01 196,-151.85 196,-151.85"/>
<polygon fill="black" stroke="black" points="192.5,-151.85 196,-161.85 199.5,-151.85 192.5,-151.85"/>
</g>
<!-- TagsService -->
<g id="node8" class="node">
<title>TagsService</title>
<ellipse fill="#fdb462" stroke="black" cx="553" cy="-248" rx="58.53" ry="18"/>
<text text-anchor="middle" x="553" y="-243.8" font-family="Times,serif" font-size="14.00">TagsService</text>
</g>
<!-- TagsService&#45;&gt;TagsModule -->
<g id="edge7" class="edge">
<title>TagsService&#45;&gt;TagsModule</title>
<path fill="none" stroke="black" d="M497.52,-254C430.37,-254 326.2,-254 326.2,-254 326.2,-254 326.2,-208.29 326.2,-208.29"/>
<polygon fill="black" stroke="black" points="329.7,-208.29 326.2,-198.29 322.7,-208.29 329.7,-208.29"/>
</g>
<!-- UsersService -->
<g id="node10" class="node">
<title>UsersService</title>
<ellipse fill="#fdb462" stroke="black" cx="826" cy="-248" rx="61.95" ry="18"/>
<text text-anchor="middle" x="826" y="-243.8" font-family="Times,serif" font-size="14.00">UsersService</text>
</g>
<!-- UsersService&#45;&gt;UsersModule -->
<g id="edge9" class="edge">
<title>UsersService&#45;&gt;UsersModule</title>
<path fill="none" stroke="black" d="M826,-229.73C826,-211.44 826,-186 826,-186 826,-186 463.93,-186 463.93,-186"/>
<polygon fill="black" stroke="black" points="463.93,-182.5 453.93,-186 463.93,-189.5 463.93,-182.5"/>
</g>
</g>
</svg>
