<?xml version="1.0" encoding="UTF-8" standalone="no"?>
<!DOCTYPE svg PUBLIC "-//W3C//DTD SVG 1.1//EN"
 "http://www.w3.org/Graphics/SVG/1.1/DTD/svg11.dtd">
<!-- Generated by graphviz version 2.44.1 (20200629.0846)
 -->
<!-- Title: dependencies Pages: 1 -->
<svg width="784pt" height="298pt"
 viewBox="0.00 0.00 784.00 298.00" xmlns="http://www.w3.org/2000/svg" xmlns:xlink="http://www.w3.org/1999/xlink">
<g id="graph0" class="graph" transform="scale(1 1) rotate(0) translate(4 294)">
<title>dependencies</title>
<polygon fill="white" stroke="transparent" points="-4,4 -4,-294 780,-294 780,4 -4,4"/>
<text text-anchor="start" x="367.01" y="-42.4" font-family="sans-serif" font-weight="bold" font-size="14.00">Legend</text>
<polygon fill="#ffffb3" stroke="transparent" points="154,-10 154,-30 174,-30 174,-10 154,-10"/>
<text text-anchor="start" x="177.63" y="-15.4" font-family="sans-serif" font-size="14.00"> &#160;Declarations</text>
<polygon fill="#8dd3c7" stroke="transparent" points="267,-10 267,-30 287,-30 287,-10 267,-10"/>
<text text-anchor="start" x="290.73" y="-15.4" font-family="sans-serif" font-size="14.00"> &#160;Module</text>
<polygon fill="#80b1d3" stroke="transparent" points="353,-10 353,-30 373,-30 373,-10 353,-10"/>
<text text-anchor="start" x="376.78" y="-15.4" font-family="sans-serif" font-size="14.00"> &#160;Bootstrap</text>
<polygon fill="#fdb462" stroke="transparent" points="450,-10 450,-30 470,-30 470,-10 450,-10"/>
<text text-anchor="start" x="473.67" y="-15.4" font-family="sans-serif" font-size="14.00"> &#160;Providers</text>
<polygon fill="#fb8072" stroke="transparent" points="546,-10 546,-30 566,-30 566,-10 546,-10"/>
<text text-anchor="start" x="569.73" y="-15.4" font-family="sans-serif" font-size="14.00"> &#160;Exports</text>
<g id="clust1" class="cluster">
<title>cluster_AppModule</title>
<polygon fill="none" stroke="black" stroke-dasharray="1,5" points="8,-146 8,-274 498,-274 498,-146 8,-146"/>
</g>
<g id="clust3" class="cluster">
<title>cluster_AppModule_imports</title>
<polygon fill="none" stroke="black" points="154,-154 154,-206 490,-206 490,-154 154,-154"/>
</g>
<g id="clust6" class="cluster">
<title>cluster_AppModule_providers</title>
<polygon fill="none" stroke="black" points="16,-154 16,-206 146,-206 146,-154 16,-154"/>
</g>
<g id="clust7" class="cluster">
<title>cluster_CronModule</title>
<polygon fill="none" stroke="black" stroke-dasharray="1,5" points="259,-70 259,-138 409,-138 409,-70 259,-70"/>
</g>
<g id="clust12" class="cluster">
<title>cluster_CronModule_providers</title>
<polygon fill="none" stroke="black" points="267,-78 267,-130 401,-130 401,-78 267,-78"/>
</g>
<g id="clust19" class="cluster">
<title>cluster_TagsModule</title>
<polygon fill="none" stroke="black" stroke-dasharray="1,5" points="506,-214 506,-282 768,-282 768,-214 506,-214"/>
</g>
<g id="clust22" class="cluster">
<title>cluster_TagsModule_exports</title>
<polygon fill="none" stroke="black" points="656,-222 656,-274 760,-274 760,-222 656,-222"/>
</g>
<g id="clust24" class="cluster">
<title>cluster_TagsModule_providers</title>
<polygon fill="none" stroke="black" points="514,-222 514,-274 648,-274 648,-222 514,-222"/>
</g>
<!-- CronModule -->
<g id="node1" class="node">
<title>CronModule</title>
<polygon fill="#8dd3c7" stroke="black" points="377.55,-198 374.55,-202 353.55,-202 350.55,-198 290.45,-198 290.45,-162 377.55,-162 377.55,-198"/>
<text text-anchor="middle" x="334" y="-175.8" font-family="Times,serif" font-size="14.00">CronModule</text>
</g>
<!-- AppModule -->
<g id="node4" class="node">
<title>AppModule</title>
<polygon fill="#8dd3c7" stroke="black" points="316.66,-266 313.66,-270 292.66,-270 289.66,-266 233.34,-266 233.34,-230 316.66,-230 316.66,-266"/>
<text text-anchor="middle" x="275" y="-243.8" font-family="Times,serif" font-size="14.00">AppModule</text>
</g>
<!-- CronModule&#45;&gt;AppModule -->
<g id="edge1" class="edge">
<title>CronModule&#45;&gt;AppModule</title>
<path fill="none" stroke="black" d="M303.53,-198.22C303.53,-198.22 303.53,-219.73 303.53,-219.73"/>
<polygon fill="black" stroke="black" points="300.03,-219.73 303.53,-229.73 307.03,-219.73 300.03,-219.73"/>
</g>
<!-- DatabaseModule -->
<g id="node2" class="node">
<title>DatabaseModule</title>
<polygon fill="#8dd3c7" stroke="black" points="272.35,-198 269.35,-202 248.35,-202 245.35,-198 161.65,-198 161.65,-162 272.35,-162 272.35,-198"/>
<text text-anchor="middle" x="217" y="-175.8" font-family="Times,serif" font-size="14.00">DatabaseModule</text>
</g>
<!-- DatabaseModule&#45;&gt;AppModule -->
<g id="edge2" class="edge">
<title>DatabaseModule&#45;&gt;AppModule</title>
<path fill="none" stroke="black" d="M252.8,-198.22C252.8,-198.22 252.8,-219.73 252.8,-219.73"/>
<polygon fill="black" stroke="black" points="249.3,-219.73 252.8,-229.73 256.3,-219.73 249.3,-219.73"/>
</g>
<!-- TagsModule -->
<g id="node3" class="node">
<title>TagsModule</title>
<polygon fill="#8dd3c7" stroke="black" points="482.26,-198 479.26,-202 458.26,-202 455.26,-198 395.74,-198 395.74,-162 482.26,-162 482.26,-198"/>
<text text-anchor="middle" x="439" y="-175.8" font-family="Times,serif" font-size="14.00">TagsModule</text>
</g>
<!-- TagsModule&#45;&gt;AppModule -->
<g id="edge3" class="edge">
<title>TagsModule&#45;&gt;AppModule</title>
<path fill="none" stroke="black" d="M424.54,-198.27C424.54,-216.56 424.54,-242 424.54,-242 424.54,-242 327.05,-242 327.05,-242"/>
<polygon fill="black" stroke="black" points="327.05,-238.5 317.05,-242 327.05,-245.5 327.05,-238.5"/>
</g>
<!-- TagsService  -->
<g id="node7" class="node">
<title>TagsService </title>
<polygon fill="#fb8072" stroke="black" points="752.19,-266 663.81,-266 663.81,-230 752.19,-230 752.19,-266"/>
<text text-anchor="middle" x="708" y="-243.8" font-family="Times,serif" font-size="14.00">TagsService </text>
</g>
<!-- TagsModule&#45;&gt;TagsService  -->
<g id="edge6" class="edge">
<title>TagsModule&#45;&gt;TagsService </title>
<path fill="none" stroke="black" stroke-dasharray="5,2" d="M482.52,-180C558.65,-180 708,-180 708,-180 708,-180 708,-219.78 708,-219.78"/>
<polygon fill="black" stroke="black" points="704.5,-219.78 708,-229.78 711.5,-219.78 704.5,-219.78"/>
</g>
<!-- AppService -->
<g id="node5" class="node">
<title>AppService</title>
<ellipse fill="#fdb462" stroke="black" cx="81" cy="-180" rx="56.74" ry="18"/>
<text text-anchor="middle" x="81" y="-175.8" font-family="Times,serif" font-size="14.00">AppService</text>
</g>
<!-- AppService&#45;&gt;AppModule -->
<g id="edge4" class="edge">
<title>AppService&#45;&gt;AppModule</title>
<path fill="none" stroke="black" d="M81,-198.22C81,-218.37 81,-248 81,-248 81,-248 222.9,-248 222.9,-248"/>
<polygon fill="black" stroke="black" points="222.9,-251.5 232.9,-248 222.9,-244.5 222.9,-251.5"/>
</g>
<!-- CronService -->
<g id="node6" class="node">
<title>CronService</title>
<ellipse fill="#fdb462" stroke="black" cx="334" cy="-104" rx="59.11" ry="18"/>
<text text-anchor="middle" x="334" y="-99.8" font-family="Times,serif" font-size="14.00">CronService</text>
</g>
<!-- CronService&#45;&gt;CronModule -->
<g id="edge5" class="edge">
<title>CronService&#45;&gt;CronModule</title>
<path fill="none" stroke="black" d="M334,-122.01C334,-122.01 334,-151.85 334,-151.85"/>
<polygon fill="black" stroke="black" points="330.5,-151.85 334,-161.85 337.5,-151.85 330.5,-151.85"/>
</g>
<!-- TagsService -->
<g id="node8" class="node">
<title>TagsService</title>
<ellipse fill="#fdb462" stroke="black" cx="581" cy="-248" rx="58.53" ry="18"/>
<text text-anchor="middle" x="581" y="-243.8" font-family="Times,serif" font-size="14.00">TagsService</text>
</g>
<!-- TagsService&#45;&gt;TagsModule -->
<g id="edge7" class="edge">
<title>TagsService&#45;&gt;TagsModule</title>
<path fill="none" stroke="black" d="M525.43,-254C491.06,-254 453.46,-254 453.46,-254 453.46,-254 453.46,-208.29 453.46,-208.29"/>
<polygon fill="black" stroke="black" points="456.96,-208.29 453.46,-198.29 449.96,-208.29 456.96,-208.29"/>
</g>
</g>
</svg>
