<?xml version="1.0" encoding="UTF-8" standalone="no"?>
<!DOCTYPE svg PUBLIC "-//W3C//DTD SVG 1.1//EN"
 "http://www.w3.org/Graphics/SVG/1.1/DTD/svg11.dtd">
<!-- Generated by graphviz version 2.44.1 (20200629.0846)
 -->
<!-- Title: dependencies Pages: 1 -->
<svg width="621pt" height="295pt"
 viewBox="0.00 0.00 621.00 295.00" xmlns="http://www.w3.org/2000/svg" xmlns:xlink="http://www.w3.org/1999/xlink">
<g id="graph0" class="graph" transform="scale(1 1) rotate(0) translate(4 291)">
<title>dependencies</title>
<polygon fill="white" stroke="transparent" points="-4,4 -4,-291 617,-291 617,4 -4,4"/>
<text text-anchor="start" x="285.51" y="-42.4" font-family="sans-serif" font-weight="bold" font-size="14.00">Legend</text>
<polygon fill="#ffffb3" stroke="transparent" points="72.5,-10 72.5,-30 92.5,-30 92.5,-10 72.5,-10"/>
<text text-anchor="start" x="96.13" y="-15.4" font-family="sans-serif" font-size="14.00"> &#160;Declarations</text>
<polygon fill="#8dd3c7" stroke="transparent" points="185.5,-10 185.5,-30 205.5,-30 205.5,-10 185.5,-10"/>
<text text-anchor="start" x="209.23" y="-15.4" font-family="sans-serif" font-size="14.00"> &#160;Module</text>
<polygon fill="#80b1d3" stroke="transparent" points="271.5,-10 271.5,-30 291.5,-30 291.5,-10 271.5,-10"/>
<text text-anchor="start" x="295.28" y="-15.4" font-family="sans-serif" font-size="14.00"> &#160;Bootstrap</text>
<polygon fill="#fdb462" stroke="transparent" points="368.5,-10 368.5,-30 388.5,-30 388.5,-10 368.5,-10"/>
<text text-anchor="start" x="392.17" y="-15.4" font-family="sans-serif" font-size="14.00"> &#160;Providers</text>
<polygon fill="#fb8072" stroke="transparent" points="464.5,-10 464.5,-30 484.5,-30 484.5,-10 464.5,-10"/>
<text text-anchor="start" x="488.23" y="-15.4" font-family="sans-serif" font-size="14.00"> &#160;Exports</text>
<g id="clust1" class="cluster">
<title>cluster_AppModule</title>
<polygon fill="none" stroke="black" stroke-dasharray="1,5" points="8,-146 8,-271 262,-271 262,-146 8,-146"/>
</g>
<g id="clust3" class="cluster">
<title>cluster_AppModule_imports</title>
<polygon fill="none" stroke="black" points="154,-154 154,-206 254,-206 254,-154 154,-154"/>
</g>
<g id="clust6" class="cluster">
<title>cluster_AppModule_providers</title>
<polygon fill="none" stroke="black" points="16,-154 16,-206 146,-206 146,-154 16,-154"/>
</g>
<g id="clust7" class="cluster">
<title>cluster_CatsModule</title>
<polygon fill="none" stroke="black" stroke-dasharray="1,5" points="131,-70 131,-138 277,-138 277,-70 131,-70"/>
</g>
<g id="clust12" class="cluster">
<title>cluster_CatsModule_providers</title>
<polygon fill="none" stroke="black" points="139,-78 139,-130 269,-130 269,-78 139,-78"/>
</g>
<g id="clust13" class="cluster">
<title>cluster_QueueModule</title>
<polygon fill="none" stroke="black" stroke-dasharray="1,5" points="285,-70 285,-206 447,-206 447,-70 285,-70"/>
</g>
<g id="clust18" class="cluster">
<title>cluster_QueueModule_providers</title>
<polygon fill="none" stroke="black" points="293,-78 293,-130 439,-130 439,-78 293,-78"/>
</g>
<g id="clust19" class="cluster">
<title>cluster_UtilsModule</title>
<polygon fill="none" stroke="black" stroke-dasharray="1,5" points="455,-70 455,-279 605,-279 605,-70 455,-70"/>
</g>
<g id="clust22" class="cluster">
<title>cluster_UtilsModule_exports</title>
<polygon fill="none" stroke="black" points="478,-219 478,-271 582,-271 582,-219 478,-219"/>
</g>
<g id="clust24" class="cluster">
<title>cluster_UtilsModule_providers</title>
<polygon fill="none" stroke="black" points="463,-78 463,-130 597,-130 597,-78 463,-78"/>
</g>
<!-- CatsModule -->
<g id="node1" class="node">
<title>CatsModule</title>
<polygon fill="#8dd3c7" stroke="black" points="246.44,-198 243.44,-202 222.44,-202 219.44,-198 161.56,-198 161.56,-162 246.44,-162 246.44,-198"/>
<text text-anchor="middle" x="204" y="-175.8" font-family="Times,serif" font-size="14.00">CatsModule</text>
</g>
<!-- AppModule -->
<g id="node2" class="node">
<title>AppModule</title>
<polygon fill="#8dd3c7" stroke="black" points="183.66,-263 180.66,-267 159.66,-267 156.66,-263 100.34,-263 100.34,-227 183.66,-227 183.66,-263"/>
<text text-anchor="middle" x="142" y="-240.8" font-family="Times,serif" font-size="14.00">AppModule</text>
</g>
<!-- CatsModule&#45;&gt;AppModule -->
<g id="edge1" class="edge">
<title>CatsModule&#45;&gt;AppModule</title>
<path fill="none" stroke="black" d="M172.81,-198.11C172.81,-198.11 172.81,-216.99 172.81,-216.99"/>
<polygon fill="black" stroke="black" points="169.31,-216.99 172.81,-226.99 176.31,-216.99 169.31,-216.99"/>
</g>
<!-- AppService -->
<g id="node3" class="node">
<title>AppService</title>
<ellipse fill="#fdb462" stroke="black" cx="81" cy="-180" rx="56.74" ry="18"/>
<text text-anchor="middle" x="81" y="-175.8" font-family="Times,serif" font-size="14.00">AppService</text>
</g>
<!-- AppService&#45;&gt;AppModule -->
<g id="edge2" class="edge">
<title>AppService&#45;&gt;AppModule</title>
<path fill="none" stroke="black" d="M118.9,-193.47C118.9,-193.47 118.9,-216.86 118.9,-216.86"/>
<polygon fill="black" stroke="black" points="115.4,-216.86 118.9,-226.86 122.4,-216.86 115.4,-216.86"/>
</g>
<!-- CatsService -->
<g id="node4" class="node">
<title>CatsService</title>
<ellipse fill="#fdb462" stroke="black" cx="204" cy="-104" rx="57.32" ry="18"/>
<text text-anchor="middle" x="204" y="-99.8" font-family="Times,serif" font-size="14.00">CatsService</text>
</g>
<!-- CatsService&#45;&gt;CatsModule -->
<g id="edge3" class="edge">
<title>CatsService&#45;&gt;CatsModule</title>
<path fill="none" stroke="black" d="M204,-122.01C204,-122.01 204,-151.85 204,-151.85"/>
<polygon fill="black" stroke="black" points="200.5,-151.85 204,-161.85 207.5,-151.85 200.5,-151.85"/>
</g>
<!-- QueueService -->
<g id="node5" class="node">
<title>QueueService</title>
<ellipse fill="#fdb462" stroke="black" cx="366" cy="-104" rx="65.39" ry="18"/>
<text text-anchor="middle" x="366" y="-99.8" font-family="Times,serif" font-size="14.00">QueueService</text>
</g>
<!-- QueueModule -->
<g id="node6" class="node">
<title>QueueModule</title>
<polygon fill="#8dd3c7" stroke="black" points="414.09,-198 411.09,-202 390.09,-202 387.09,-198 317.91,-198 317.91,-162 414.09,-162 414.09,-198"/>
<text text-anchor="middle" x="366" y="-175.8" font-family="Times,serif" font-size="14.00">QueueModule</text>
</g>
<!-- QueueService&#45;&gt;QueueModule -->
<g id="edge4" class="edge">
<title>QueueService&#45;&gt;QueueModule</title>
<path fill="none" stroke="black" d="M366,-122.01C366,-122.01 366,-151.85 366,-151.85"/>
<polygon fill="black" stroke="black" points="362.5,-151.85 366,-161.85 369.5,-151.85 362.5,-151.85"/>
</g>
<!-- UtilsService  -->
<g id="node7" class="node">
<title>UtilsService </title>
<polygon fill="#fb8072" stroke="black" points="574.2,-263 485.8,-263 485.8,-227 574.2,-227 574.2,-263"/>
<text text-anchor="middle" x="530" y="-240.8" font-family="Times,serif" font-size="14.00">UtilsService </text>
</g>
<!-- UtilsModule -->
<g id="node8" class="node">
<title>UtilsModule</title>
<polygon fill="#8dd3c7" stroke="black" points="573.27,-198 570.27,-202 549.27,-202 546.27,-198 486.73,-198 486.73,-162 573.27,-162 573.27,-198"/>
<text text-anchor="middle" x="530" y="-175.8" font-family="Times,serif" font-size="14.00">UtilsModule</text>
</g>
<!-- UtilsModule&#45;&gt;UtilsService  -->
<g id="edge5" class="edge">
<title>UtilsModule&#45;&gt;UtilsService </title>
<path fill="none" stroke="black" stroke-dasharray="5,2" d="M530,-198.11C530,-198.11 530,-216.99 530,-216.99"/>
<polygon fill="black" stroke="black" points="526.5,-216.99 530,-226.99 533.5,-216.99 526.5,-216.99"/>
</g>
<!-- UtilsService -->
<g id="node9" class="node">
<title>UtilsService</title>
<ellipse fill="#fdb462" stroke="black" cx="530" cy="-104" rx="58.54" ry="18"/>
<text text-anchor="middle" x="530" y="-99.8" font-family="Times,serif" font-size="14.00">UtilsService</text>
</g>
<!-- UtilsService&#45;&gt;UtilsModule -->
<g id="edge6" class="edge">
<title>UtilsService&#45;&gt;UtilsModule</title>
<path fill="none" stroke="black" d="M530,-122.01C530,-122.01 530,-151.85 530,-151.85"/>
<polygon fill="black" stroke="black" points="526.5,-151.85 530,-161.85 533.5,-151.85 526.5,-151.85"/>
</g>
</g>
</svg>
