<?xml version="1.0" encoding="UTF-8" standalone="no"?>
<!DOCTYPE svg PUBLIC "-//W3C//DTD SVG 1.1//EN"
 "http://www.w3.org/Graphics/SVG/1.1/DTD/svg11.dtd">
<!-- Generated by graphviz version 2.44.1 (20200629.0846)
 -->
<!-- Title: dependencies Pages: 1 -->
<svg width="504pt" height="287pt"
 viewBox="0.00 0.00 504.00 287.00" xmlns="http://www.w3.org/2000/svg" xmlns:xlink="http://www.w3.org/1999/xlink">
<g id="graph0" class="graph" transform="scale(1 1) rotate(0) translate(4 283)">
<title>dependencies</title>
<polygon fill="white" stroke="transparent" points="-4,4 -4,-283 500,-283 500,4 -4,4"/>
<text text-anchor="start" x="227.01" y="-42.4" font-family="sans-serif" font-weight="bold" font-size="14.00">Legend</text>
<polygon fill="#ffffb3" stroke="transparent" points="14,-10 14,-30 34,-30 34,-10 14,-10"/>
<text text-anchor="start" x="37.63" y="-15.4" font-family="sans-serif" font-size="14.00"> &#160;Declarations</text>
<polygon fill="#8dd3c7" stroke="transparent" points="127,-10 127,-30 147,-30 147,-10 127,-10"/>
<text text-anchor="start" x="150.73" y="-15.4" font-family="sans-serif" font-size="14.00"> &#160;Module</text>
<polygon fill="#80b1d3" stroke="transparent" points="213,-10 213,-30 233,-30 233,-10 213,-10"/>
<text text-anchor="start" x="236.78" y="-15.4" font-family="sans-serif" font-size="14.00"> &#160;Bootstrap</text>
<polygon fill="#fdb462" stroke="transparent" points="310,-10 310,-30 330,-30 330,-10 310,-10"/>
<text text-anchor="start" x="333.67" y="-15.4" font-family="sans-serif" font-size="14.00"> &#160;Providers</text>
<polygon fill="#fb8072" stroke="transparent" points="406,-10 406,-30 426,-30 426,-10 406,-10"/>
<text text-anchor="start" x="429.73" y="-15.4" font-family="sans-serif" font-size="14.00"> &#160;Exports</text>
<g id="clust1" class="cluster">
<title>cluster_AppModule</title>
<polygon fill="none" stroke="black" stroke-dasharray="1,5" points="47.5,-146 47.5,-271 407.5,-271 407.5,-146 47.5,-146"/>
</g>
<g id="clust3" class="cluster">
<title>cluster_AppModule_imports</title>
<polygon fill="none" stroke="black" points="193.5,-154 193.5,-206 399.5,-206 399.5,-154 193.5,-154"/>
</g>
<g id="clust6" class="cluster">
<title>cluster_AppModule_providers</title>
<polygon fill="none" stroke="black" points="55.5,-154 55.5,-206 185.5,-206 185.5,-154 55.5,-154"/>
</g>
<g id="clust7" class="cluster">
<title>cluster_CatsModule</title>
<polygon fill="none" stroke="black" stroke-dasharray="1,5" points="144.5,-70 144.5,-138 290.5,-138 290.5,-70 144.5,-70"/>
</g>
<g id="clust12" class="cluster">
<title>cluster_CatsModule_providers</title>
<polygon fill="none" stroke="black" points="152.5,-78 152.5,-130 282.5,-130 282.5,-78 152.5,-78"/>
</g>
<g id="clust13" class="cluster">
<title>cluster_CronModule</title>
<polygon fill="none" stroke="black" stroke-dasharray="1,5" points="298.5,-70 298.5,-138 448.5,-138 448.5,-70 298.5,-70"/>
</g>
<g id="clust18" class="cluster">
<title>cluster_CronModule_providers</title>
<polygon fill="none" stroke="black" points="306.5,-78 306.5,-130 440.5,-130 440.5,-78 306.5,-78"/>
</g>
<!-- CatsModule -->
<g id="node1" class="node">
<title>CatsModule</title>
<polygon fill="#8dd3c7" stroke="black" points="285.94,-198 282.94,-202 261.94,-202 258.94,-198 201.06,-198 201.06,-162 285.94,-162 285.94,-198"/>
<text text-anchor="middle" x="243.5" y="-175.8" font-family="Times,serif" font-size="14.00">CatsModule</text>
</g>
<!-- AppModule -->
<g id="node3" class="node">
<title>AppModule</title>
<polygon fill="#8dd3c7" stroke="black" points="285.16,-263 282.16,-267 261.16,-267 258.16,-263 201.84,-263 201.84,-227 285.16,-227 285.16,-263"/>
<text text-anchor="middle" x="243.5" y="-240.8" font-family="Times,serif" font-size="14.00">AppModule</text>
</g>
<!-- CatsModule&#45;&gt;AppModule -->
<g id="edge1" class="edge">
<title>CatsModule&#45;&gt;AppModule</title>
<path fill="none" stroke="black" d="M243.5,-198.11C243.5,-198.11 243.5,-216.99 243.5,-216.99"/>
<polygon fill="black" stroke="black" points="240,-216.99 243.5,-226.99 247,-216.99 240,-216.99"/>
</g>
<!-- CronModule -->
<g id="node2" class="node">
<title>CronModule</title>
<polygon fill="#8dd3c7" stroke="black" points="391.05,-198 388.05,-202 367.05,-202 364.05,-198 303.95,-198 303.95,-162 391.05,-162 391.05,-198"/>
<text text-anchor="middle" x="347.5" y="-175.8" font-family="Times,serif" font-size="14.00">CronModule</text>
</g>
<!-- CronModule&#45;&gt;AppModule -->
<g id="edge2" class="edge">
<title>CronModule&#45;&gt;AppModule</title>
<path fill="none" stroke="black" d="M347.5,-198.11C347.5,-217.34 347.5,-245 347.5,-245 347.5,-245 295.2,-245 295.2,-245"/>
<polygon fill="black" stroke="black" points="295.2,-241.5 285.2,-245 295.2,-248.5 295.2,-241.5"/>
</g>
<!-- AppService -->
<g id="node4" class="node">
<title>AppService</title>
<ellipse fill="#fdb462" stroke="black" cx="120.5" cy="-180" rx="56.74" ry="18"/>
<text text-anchor="middle" x="120.5" y="-175.8" font-family="Times,serif" font-size="14.00">AppService</text>
</g>
<!-- AppService&#45;&gt;AppModule -->
<g id="edge3" class="edge">
<title>AppService&#45;&gt;AppModule</title>
<path fill="none" stroke="black" d="M120.5,-198.11C120.5,-217.34 120.5,-245 120.5,-245 120.5,-245 191.51,-245 191.51,-245"/>
<polygon fill="black" stroke="black" points="191.51,-248.5 201.51,-245 191.51,-241.5 191.51,-248.5"/>
</g>
<!-- CatsService -->
<g id="node5" class="node">
<title>CatsService</title>
<ellipse fill="#fdb462" stroke="black" cx="217.5" cy="-104" rx="57.32" ry="18"/>
<text text-anchor="middle" x="217.5" y="-99.8" font-family="Times,serif" font-size="14.00">CatsService</text>
</g>
<!-- CatsService&#45;&gt;CatsModule -->
<g id="edge4" class="edge">
<title>CatsService&#45;&gt;CatsModule</title>
<path fill="none" stroke="black" d="M237.97,-120.87C237.97,-120.87 237.97,-151.85 237.97,-151.85"/>
<polygon fill="black" stroke="black" points="234.47,-151.85 237.97,-161.85 241.47,-151.85 234.47,-151.85"/>
</g>
<!-- CronService -->
<g id="node6" class="node">
<title>CronService</title>
<ellipse fill="#fdb462" stroke="black" cx="373.5" cy="-104" rx="59.11" ry="18"/>
<text text-anchor="middle" x="373.5" y="-99.8" font-family="Times,serif" font-size="14.00">CronService</text>
</g>
<!-- CronService&#45;&gt;CronModule -->
<g id="edge5" class="edge">
<title>CronService&#45;&gt;CronModule</title>
<path fill="none" stroke="black" d="M352.73,-120.87C352.73,-120.87 352.73,-151.85 352.73,-151.85"/>
<polygon fill="black" stroke="black" points="349.23,-151.85 352.73,-161.85 356.23,-151.85 349.23,-151.85"/>
</g>
</g>
</svg>
